<?xml version="1.0" encoding="utf-8"?>
<!-- Generator: Adobe Illustrator 25.1.0, SVG Export Plug-In . SVG Version: 6.00 Build 0)  -->
<svg version="1.1" xmlns="http://www.w3.org/2000/svg" xmlns:xlink="http://www.w3.org/1999/xlink" x="0px" y="0px"
	 viewBox="0 0 720 720" style="enable-background:new 0 0 720 720;" xml:space="preserve">
<style type="text/css">
	.st0{fill:#FFFFFF;}
	.st1{fill:none;}
	.st2{fill:none;stroke:#FFFFFF;stroke-width:0;stroke-linecap:round;stroke-linejoin:round;}
</style>
<g id="Capital">
</g>
<g id="Gerrymandering">
</g>
<g id="Representative_x2F__Policy_Maker">
</g>
<g id="History">
</g>
<g id="American_Flag">
</g>
<g id="Justice">
</g>
<g id="Voting">
</g>
<g id="Info_x2F_facts">
</g>
<g id="Diversity_x2F__Inclusion">
</g>
<g id="Our_Mission">
</g>
<g id="Our_Vision">
</g>
<g id="Message">
</g>
<g id="Incoming_Message">
</g>
<g id="Candidates">
</g>
<g id="Announcement">
</g>
<g id="Candidate_Search">
</g>
<g id="Vote">
</g>
<g id="Political_Campaign">
</g>
<g id="Ballot">
</g>
<g id="Google_Doc">
</g>
<g id="PDF">
</g>
<g id="Illustrator_File">
	<g>
		<g>
			<path d="M396.97,118.19H186.18c-20.57,0-37.3,16.73-37.3,37.3v409.03c0,20.57,16.73,37.3,37.3,37.3h256.86
				c20.57,0,37.3-16.73,37.3-37.3V258.84L396.97,118.19z M388.2,150.02l65.78,110.97H388.2V150.02z M456.56,564.52
				c0,7.46-6.06,13.52-13.52,13.52H186.18c-7.46,0-13.52-6.06-13.52-13.52V155.48c0-7.46,6.06-13.52,13.52-13.52h178.24v130.92
				c0,6.57,5.32,11.89,11.89,11.89h80.25V564.52z"/>
		</g>
	</g>
	<g>
		<path d="M317.25,542.3l-3.69-12.12h-18.57l-3.69,12.12h-11.64l17.98-51.14h13.2l18.05,51.14H317.25z M310.98,521.12
			c-3.41-10.99-5.34-17.19-5.77-18.63c-0.43-1.44-0.73-2.58-0.92-3.41c-0.77,2.97-2.96,10.31-6.58,22.04H310.98z"/>
		<path d="M334.01,493.3c0-3.46,1.93-5.2,5.78-5.2s5.78,1.74,5.78,5.2c0,1.65-0.49,2.93-1.45,3.83c-0.96,0.93-2.4,1.39-4.33,1.39
			C335.94,498.52,334.01,496.78,334.01,493.3z M345.09,542.3h-10.63v-38.95h10.63V542.3z"/>
	</g>
	<g>
		<g>
			<path d="M321.44,323.49c-0.11-0.2-0.28-0.3-0.43-0.44v74.26c1.2,0.52,2.05,1.72,2.05,3.11c0,1.88-1.52,3.4-3.4,3.4
				c-1.88,0-3.4-1.52-3.4-3.4c0-1.4,0.84-2.59,2.05-3.11v-74.26c-0.15,0.14-0.32,0.25-0.43,0.44l-41.82,76.93
				c-0.64,1.17,0.01,2.62,1.31,2.93c6.97,1.69,25.62,7.86,26.88,25.66c0.08,1.07,0.92,1.92,1.99,1.92h26c1.03,0,1.84-0.82,1.93-1.85
				c1.48-15.44,21.22-23.19,28.06-25.43c1.2-0.39,1.74-1.77,1.13-2.88L321.44,323.49z"/>
		</g>
		<g>
			<path d="M333.49,434h-28.54c-3.11,0-5.64,2.53-5.64,5.64v3.2c0,3.11,2.53,5.64,5.64,5.64h28.54c3.11,0,5.65-2.53,5.65-5.64v-3.2
				C339.13,436.53,336.6,434,333.49,434z M334.24,442.84c0,0.4-0.34,0.74-0.75,0.74h-28.54c-0.4,0-0.74-0.34-0.74-0.74v-3.2
				c0-0.4,0.34-0.74,0.74-0.74h28.54c0.4,0,0.75,0.34,0.75,0.74V442.84z"/>
		</g>
		<g>
			<path d="M328.32,451.73h-18.74c-3.11,0-5.64,2.53-5.64,5.65v3.2c0,3.11,2.53,5.64,5.64,5.64h18.74c3.11,0,5.64-2.53,5.64-5.64
				v-3.2C333.96,454.27,331.43,451.73,328.32,451.73z M329.07,460.57c0,0.4-0.34,0.74-0.74,0.74h-18.74c-0.4,0-0.74-0.34-0.74-0.74
				v-3.2c0-0.4,0.34-0.75,0.74-0.75h18.74c0.4,0,0.74,0.34,0.74,0.75V460.57z"/>
		</g>
		<g>
			<path d="M389.78,295.71h-7.89c-2.03,0-3.67,1.65-3.67,3.67v1.68h-48.86c-0.61-0.14-1.23-0.29-1.85-0.41
				c-0.7-3.9-4.1-6.88-8.2-6.88c-4.1,0-7.5,2.97-8.2,6.88c-0.62,0.12-1.24,0.26-1.85,0.41h-53.57c0,0,0,0,0,0v-1.68
				c0-2.03-1.65-3.67-3.67-3.67h-7.89c-2.03,0-3.67,1.65-3.67,3.67v7.89c0,2.03,1.65,3.67,3.67,3.67H252c2.03,0,3.67-1.65,3.67-3.67
				v-1.67c0,0,0,0,0,0h41.95c-12.83,7.28-21.63,20.8-22.32,36.41c-3.55,0.96-6.18,4.18-6.18,8.03c0,4.6,3.75,8.35,8.35,8.35
				c4.6,0,8.35-3.75,8.35-8.35c0-3.78-2.54-6.94-5.99-7.97c0.84-17.69,13.32-32.34,29.96-36.47h1.93c1.32,2.87,4.21,4.88,7.57,4.88
				c3.36,0,6.25-2.01,7.57-4.88h1.93c16.64,4.12,29.12,18.78,29.96,36.47c-3.45,1.03-5.99,4.19-5.99,7.97c0,4.6,3.75,8.35,8.35,8.35
				c4.6,0,8.35-3.75,8.35-8.35c0-3.85-2.63-7.07-6.18-8.03c-0.69-15.61-9.49-29.13-22.32-36.41h37.24v1.67
				c0,2.03,1.65,3.67,3.67,3.67h7.89c2.03,0,3.67-1.65,3.67-3.67v-7.89C393.45,297.36,391.8,295.71,389.78,295.71z M252.18,307.27
				c0,0.1-0.08,0.17-0.17,0.17h-7.89c-0.1,0-0.17-0.08-0.17-0.17v-7.89c0-0.1,0.08-0.17,0.17-0.17H252c0.1,0,0.17,0.08,0.17,0.17
				V307.27z M277.48,353.85c-2.1,0-3.81-1.71-3.81-3.81s1.71-3.81,3.81-3.81c2.1,0,3.81,1.71,3.81,3.81S279.58,353.85,277.48,353.85
				z M361.12,353.85c-2.1,0-3.81-1.71-3.81-3.81s1.71-3.81,3.81-3.81s3.81,1.71,3.81,3.81S363.22,353.85,361.12,353.85z
				 M319.3,305.95c-2.1,0-3.81-1.71-3.81-3.82c0-2.1,1.71-3.81,3.81-3.81c2.1,0,3.81,1.71,3.81,3.81
				C323.11,304.24,321.4,305.95,319.3,305.95z M389.95,307.27c0,0.1-0.08,0.17-0.17,0.17h-7.89c-0.1,0-0.17-0.08-0.17-0.17v-7.89
				c0-0.1,0.08-0.17,0.17-0.17h7.89c0.1,0,0.17,0.08,0.17,0.17V307.27z"/>
		</g>
	</g>
</g>
<g id="IMG_File">
</g>
<g id="Links">
</g>
</svg>
