<?xml version="1.0" encoding="utf-8"?>
<!-- Generator: Adobe Illustrator 25.1.0, SVG Export Plug-In . SVG Version: 6.00 Build 0)  -->
<svg version="1.1" xmlns="http://www.w3.org/2000/svg" xmlns:xlink="http://www.w3.org/1999/xlink" x="0px" y="0px"
	 viewBox="0 0 720 720" style="enable-background:new 0 0 720 720;" xml:space="preserve">
<style type="text/css">
	.st0{fill:#FFFFFF;}
	.st1{fill:none;}
	.st2{fill:none;stroke:#FFFFFF;stroke-width:0;stroke-linecap:round;stroke-linejoin:round;}
</style>
<g id="Capital">
</g>
<g id="Gerrymandering">
</g>
<g id="Representative_x2F__Policy_Maker">
</g>
<g id="History">
</g>
<g id="American_Flag">
</g>
<g id="Justice">
</g>
<g id="Voting">
</g>
<g id="Info_x2F_facts">
</g>
<g id="Diversity_x2F__Inclusion">
</g>
<g id="Our_Mission">
</g>
<g id="Our_Vision">
</g>
<g id="Message">
</g>
<g id="Incoming_Message">
</g>
<g id="Candidates">
</g>
<g id="Announcement">
</g>
<g id="Candidate_Search">
</g>
<g id="Vote">
</g>
<g id="Political_Campaign">
</g>
<g id="Ballot">
</g>
<g id="Google_Doc">
	<g>
		<g>
			<path d="M433.85,118.19H223.06c-20.57,0-37.3,16.73-37.3,37.3v409.03c0,20.57,16.73,37.3,37.3,37.3h256.86
				c20.57,0,37.3-16.73,37.3-37.3V258.84L433.85,118.19z M425.08,150.02l65.78,110.97h-65.78V150.02z M493.44,564.52
				c0,7.46-6.06,13.52-13.52,13.52H223.06c-7.46,0-13.52-6.06-13.52-13.52V155.48c0-7.46,6.06-13.52,13.52-13.52H401.3v130.92
				c0,6.57,5.32,11.89,11.89,11.89h80.25V564.52z"/>
		</g>
		<g>
			<path d="M266.85,323.1c0,5.76,4.71,10.47,10.47,10.47h148.35c5.76,0,10.47-4.71,10.47-10.47c0-5.76-4.71-10.47-10.47-10.47
				H277.32C271.56,312.63,266.85,317.34,266.85,323.1z"/>
		</g>
		<g>
			<path d="M425.67,353.93H277.32c-5.76,0-10.47,4.71-10.47,10.47c0,5.76,4.71,10.47,10.47,10.47h148.35
				c5.76,0,10.47-4.71,10.47-10.47C436.14,358.64,431.43,353.93,425.67,353.93z"/>
		</g>
		<g>
			<path d="M425.67,395.22H277.32c-5.76,0-10.47,4.71-10.47,10.47c0,5.76,4.71,10.47,10.47,10.47h148.35
				c5.76,0,10.47-4.71,10.47-10.47C436.14,399.93,431.43,395.22,425.67,395.22z"/>
		</g>
		<g>
			<path d="M341.03,436.52h-63.71c-5.76,0-10.47,4.71-10.47,10.47s4.71,10.47,10.47,10.47h63.71c5.76,0,10.47-4.71,10.47-10.47
				S346.78,436.52,341.03,436.52z"/>
		</g>
	</g>
	<g>
		<path d="M328.83,515.9c0,8.38-2.38,14.81-7.16,19.26c-4.76,4.46-11.66,6.69-20.67,6.69h-14.42v-50.93h15.99
			c8.31,0,14.77,2.19,19.37,6.58C326.53,501.89,328.83,508.02,328.83,515.9z M317.62,516.17c0-10.94-4.83-16.41-14.49-16.41h-5.75
			v33.16h4.63C312.41,532.93,317.62,527.35,317.62,516.17z"/>
		<path d="M373.95,522.31c0,6.34-1.67,11.3-5.02,14.88s-8,5.36-13.97,5.36c-3.74,0-7.04-0.81-9.89-2.46
			c-2.86-1.63-5.05-3.98-6.58-7.05c-1.53-3.07-2.3-6.64-2.3-10.73c0-6.36,1.66-11.31,4.98-14.84c3.32-3.53,7.99-5.3,14-5.3
			c3.74,0,7.04,0.81,9.89,2.44c2.86,1.63,5.05,3.96,6.58,7C373.18,514.65,373.95,518.22,373.95,522.31z M347.02,522.31
			c0,3.86,0.63,6.77,1.89,8.74c1.27,1.97,3.33,2.96,6.19,2.96c2.83,0,4.87-0.98,6.12-2.94c1.23-1.96,1.86-4.89,1.86-8.77
			c0-3.86-0.63-6.75-1.88-8.67c-1.25-1.93-3.31-2.89-6.17-2.89c-2.83,0-4.88,0.96-6.13,2.87
			C347.65,515.54,347.02,518.43,347.02,522.31z"/>
		<path d="M398.54,542.55c-12.12,0-18.18-6.65-18.18-19.96c0-6.62,1.65-11.67,4.95-15.18c3.3-3.48,8.02-5.24,14.18-5.24
			c4.51,0,8.55,0.88,12.12,2.65l-3.14,8.22c-1.67-0.67-3.23-1.22-4.67-1.66c-1.44-0.42-2.88-0.64-4.32-0.64
			c-5.53,0-8.29,3.92-8.29,11.77c0,7.62,2.76,11.43,8.29,11.43c2.04,0,3.94-0.27,5.68-0.82c1.74-0.53,3.48-1.39,5.23-2.55v9.09
			c-1.72,1.09-3.46,1.85-5.2,2.26C403.42,542.34,401.21,542.55,398.54,542.55z"/>
	</g>
</g>
<g id="PDF">
</g>
<g id="Illustrator_File">
</g>
<g id="IMG_File">
</g>
<g id="Links">
</g>
</svg>
