<?xml version="1.0" encoding="utf-8"?>
<!-- Generator: Adobe Illustrator 25.1.0, SVG Export Plug-In . SVG Version: 6.00 Build 0)  -->
<svg version="1.1" xmlns="http://www.w3.org/2000/svg" xmlns:xlink="http://www.w3.org/1999/xlink" x="0px" y="0px"
	 viewBox="0 0 720 720" style="enable-background:new 0 0 720 720;" xml:space="preserve">
<style type="text/css">
	.st0{fill:#FFFFFF;}
	.st1{fill:none;}
	.st2{fill:none;stroke:#FFFFFF;stroke-width:0;stroke-linecap:round;stroke-linejoin:round;}
</style>
<g id="Capital">
</g>
<g id="Gerrymandering">
</g>
<g id="Representative_x2F__Policy_Maker">
</g>
<g id="History">
</g>
<g id="American_Flag">
</g>
<g id="Justice">
</g>
<g id="Voting">
</g>
<g id="Info_x2F_facts">
</g>
<g id="Diversity_x2F__Inclusion">
</g>
<g id="Our_Mission">
</g>
<g id="Our_Vision">
</g>
<g id="Message">
</g>
<g id="Incoming_Message">
</g>
<g id="Candidates">
</g>
<g id="Announcement">
</g>
<g id="Candidate_Search">
</g>
<g id="Vote">
</g>
<g id="Political_Campaign">
</g>
<g id="Ballot">
</g>
<g id="Google_Doc">
</g>
<g id="PDF">
</g>
<g id="Illustrator_File">
</g>
<g id="IMG_File">
	<g>
		<g>
			<path d="M447.55,118.19H236.77c-20.57,0-37.3,16.73-37.3,37.3v409.03c0,20.57,16.73,37.3,37.3,37.3h256.86
				c20.57,0,37.3-16.73,37.3-37.3V258.84L447.55,118.19z M438.78,150.02l65.78,110.97h-65.78V150.02z M507.15,564.52
				c0,7.46-6.06,13.52-13.52,13.52H236.77c-7.46,0-13.52-6.06-13.52-13.52V155.48c0-7.46,6.06-13.52,13.52-13.52H415v130.92
				c0,6.57,5.32,11.89,11.89,11.89h80.25V564.52z"/>
		</g>
	</g>
	<g>
		<path d="M314.72,528.52h-23.17v-6.13l6.2-2.86v-32.96l-6.2-2.86v-6.13h23.17v6.13l-6.2,2.86v32.96l6.2,2.86V528.52z"/>
		<path d="M344.99,528.52l-12.26-39.96h-0.31c0.44,8.13,0.66,13.55,0.66,16.27v23.69h-9.65v-50.93h14.7l12.05,38.95h0.21
			l12.79-38.95h14.7v50.93h-10.07v-24.11c0-1.14,0.02-2.45,0.05-3.94c0.05-1.49,0.2-5.43,0.48-11.84h-0.31l-13.13,39.89H344.99z"/>
		<path d="M410.03,499.92h20.21v26.41c-3.27,1.07-6.35,1.82-9.26,2.24c-2.88,0.43-5.84,0.65-8.86,0.65
			c-7.69,0-13.56-2.25-17.62-6.78c-4.05-4.51-6.07-11-6.07-19.45c0-8.22,2.36-14.63,7.05-19.23c4.71-4.6,11.23-6.9,19.57-6.9
			c5.23,0,10.27,1.05,15.12,3.14l-3.59,8.64c-3.72-1.86-7.58-2.79-11.6-2.79c-4.67,0-8.41,1.57-11.22,4.7s-4.22,7.35-4.22,12.65
			c0,5.53,1.14,9.75,3.39,12.67c2.28,2.91,5.56,4.37,9.88,4.37c2.25,0,4.54-0.23,6.86-0.7V508.9h-9.65V499.92z"/>
	</g>
	<g>
		<g>
			<path d="M460.04,439.31l-42.25-60.29c-1.69-2.42-4.41-3.7-7.17-3.7c-0.03,0-0.07,0-0.1,0c-0.03,0-0.07,0-0.1,0
				c-2.76,0-5.48,1.29-7.17,3.7l-16.96,24.2l-36.81-52.54c-2.34-3.34-6.1-5.12-9.92-5.12c-0.05,0-0.09,0-0.14,0
				c-0.05,0-0.09,0-0.14,0c-3.81,0-7.57,1.78-9.92,5.12l-58.43,83.38c-3.81,5.43-2.48,12.99,2.96,16.8
				c5.43,3.81,12.99,2.48,16.8-2.96l48.72-69.53l48.72,69.53c3.81,5.43,11.37,6.76,16.8,2.96c5.43-3.81,6.76-11.37,2.96-16.8
				l-10.96-15.65l13.58-19.37l35.23,50.28c2.75,3.93,8.22,4.89,12.15,2.14C461.83,448.71,462.79,443.24,460.04,439.31z"/>
		</g>
		<g>
			<ellipse transform="matrix(0.7071 -0.7071 0.7071 0.7071 -108.3132 393.2074)" cx="420.49" cy="327.35" rx="25.14" ry="25.14"/>
		</g>
	</g>
</g>
<g id="Links">
</g>
</svg>
