<?xml version="1.0" encoding="utf-8"?>
<!-- Generator: Adobe Illustrator 25.1.0, SVG Export Plug-In . SVG Version: 6.00 Build 0)  -->
<svg version="1.1" xmlns="http://www.w3.org/2000/svg" xmlns:xlink="http://www.w3.org/1999/xlink" x="0px" y="0px"
	 viewBox="0 0 720 720" style="enable-background:new 0 0 720 720;" xml:space="preserve">
<style type="text/css">
	.st0{fill:#FFFFFF;}
	.st1{fill:none;}
	.st2{fill:none;stroke:#FFFFFF;stroke-width:0;stroke-linecap:round;stroke-linejoin:round;}
</style>
<g id="Capital">
</g>
<g id="Gerrymandering">
</g>
<g id="Representative_x2F__Policy_Maker">
</g>
<g id="History">
</g>
<g id="American_Flag">
</g>
<g id="Justice">
</g>
<g id="Voting">
</g>
<g id="Info_x2F_facts">
</g>
<g id="Diversity_x2F__Inclusion">
</g>
<g id="Our_Mission">
</g>
<g id="Our_Vision">
</g>
<g id="Message">
</g>
<g id="Incoming_Message">
</g>
<g id="Candidates">
</g>
<g id="Announcement">
</g>
<g id="Candidate_Search">
</g>
<g id="Vote">
</g>
<g id="Political_Campaign">
</g>
<g id="Ballot">
</g>
<g id="Google_Doc">
</g>
<g id="PDF">
</g>
<g id="Illustrator_File">
</g>
<g id="IMG_File">
</g>
<g id="Links">
	<g>
		<g>
			<path d="M459.87,118.19H249.09c-20.57,0-37.3,16.73-37.3,37.3v409.03c0,20.57,16.73,37.3,37.3,37.3h256.86
				c20.57,0,37.3-16.73,37.3-37.3V258.84L459.87,118.19z M451.11,150.02l65.78,110.97h-65.78V150.02z M519.47,564.52
				c0,7.46-6.06,13.52-13.52,13.52H249.09c-7.46,0-13.52-6.06-13.52-13.52V155.48c0-7.46,6.06-13.52,13.52-13.52h178.24v130.92
				c0,6.57,5.32,11.89,11.89,11.89h80.25V564.52z"/>
		</g>
	</g>
	<g>
		<path d="M291.83,528.51v-50.93h10.8v42.01h20.66v8.92H291.83z"/>
		<path d="M330.85,479.5c0-3.46,1.93-5.19,5.78-5.19s5.78,1.73,5.78,5.19c0,1.65-0.49,2.94-1.45,3.84c-0.96,0.93-2.4,1.38-4.33,1.38
			C332.78,484.72,330.85,482.98,330.85,479.5z M341.93,528.51H331.3v-38.95h10.63V528.51z"/>
		<path d="M389.03,528.51H378.4v-22.75c0-2.81-0.5-4.91-1.5-6.33c-1-1.39-2.59-2.1-4.77-2.1c-2.97,0-5.12,0.99-6.44,2.98
			c-1.32,1.97-1.99,5.27-1.99,9.87v18.32h-10.63v-38.95h8.12l1.43,4.98h0.59c1.18-1.88,2.81-3.3,4.89-4.26
			c2.08-0.96,4.45-1.45,7.1-1.45c4.53,0,7.97,1.23,10.31,3.68c2.35,2.45,3.52,5.98,3.52,10.6V528.51z"/>
		<path d="M410.17,507.33l4.63-5.92l10.9-11.84h11.98l-15.47,16.9l16.41,22.05h-12.26l-11.22-15.78l-4.56,3.66v12.12h-10.63v-54.21
			h10.63v24.18l-0.56,8.85H410.17z"/>
		<path d="M471.38,516.95c0,3.99-1.39,7.04-4.16,9.13c-2.79,2.09-6.93,3.14-12.46,3.14c-2.83,0-5.25-0.19-7.25-0.58
			c-2-0.37-3.87-0.94-5.61-1.68v-8.78c1.97,0.93,4.2,1.71,6.67,2.33c2.49,0.63,4.66,0.94,6.54,0.94c3.86,0,5.78-1.11,5.78-3.34
			c0-0.84-0.26-1.52-0.77-2.03c-0.51-0.53-1.39-1.11-2.65-1.79c-1.25-0.65-2.93-1.43-5.02-2.31c-3-1.25-5.2-2.42-6.61-3.48
			s-2.43-2.29-3.07-3.68c-0.64-1.37-0.95-3.08-0.95-5.1c0-3.46,1.35-6.13,4.02-8.02c2.69-1.89,6.49-2.85,11.41-2.85
			c4.69,0,9.26,1.02,13.69,3.07l-3.21,7.66c-1.95-0.84-3.77-1.52-5.47-2.06c-1.7-0.53-3.43-0.8-5.19-0.8c-3.14,0-4.7,0.85-4.7,2.54
			c0,0.95,0.5,1.78,1.52,2.47c1,0.7,3.22,1.73,6.63,3.1c3.04,1.23,5.27,2.38,6.69,3.45c1.42,1.07,2.46,2.3,3.14,3.69
			C471.04,513.36,471.38,515.02,471.38,516.95z"/>
	</g>
	<g>
		<g>
			<path d="M387.74,399.72c-6.58,0-13.15-2.5-18.16-7.51c-2.71-2.71-2.71-7.1,0-9.8c2.71-2.71,7.1-2.71,9.8,0
				c4.61,4.61,12.1,4.61,16.71,0l46.18-46.18c4.61-4.61,4.61-12.1,0-16.71c-4.61-4.61-12.11-4.61-16.71,0l-33.54,33.54
				c-2.71,2.71-7.1,2.71-9.8,0c-2.71-2.71-2.71-7.1,0-9.8l33.54-33.54c10.01-10.01,26.31-10.01,36.32,0
				c10.01,10.01,10.01,26.31,0,36.32l-46.18,46.18C400.89,397.22,394.32,399.72,387.74,399.72z"/>
		</g>
	</g>
	<g>
		<g>
			<path d="M332.03,453.03c-6.58,0-13.15-2.5-18.16-7.51c-10.01-10.01-10.01-26.31,0-36.32l46.18-46.18
				c10.01-10.01,26.31-10.01,36.32,0c2.71,2.71,2.71,7.1,0,9.8c-2.71,2.71-7.1,2.71-9.8,0c-4.61-4.61-12.1-4.61-16.71,0L323.67,419
				c-4.61,4.61-4.61,12.1,0,16.71c4.61,4.61,12.11,4.61,16.71,0l33.54-33.54c2.71-2.71,7.1-2.71,9.8,0c2.71,2.71,2.71,7.1,0,9.8
				l-33.54,33.54C345.18,450.53,338.6,453.03,332.03,453.03z"/>
		</g>
	</g>
</g>
</svg>
