<?xml version="1.0" encoding="utf-8"?>
<!-- Generator: Adobe Illustrator 25.1.0, SVG Export Plug-In . SVG Version: 6.00 Build 0)  -->
<svg version="1.1" xmlns="http://www.w3.org/2000/svg" xmlns:xlink="http://www.w3.org/1999/xlink" x="0px" y="0px"
	 viewBox="0 0 720 720" style="enable-background:new 0 0 720 720;" xml:space="preserve">
<style type="text/css">
	.st0{fill:#FFFFFF;}
	.st1{fill:none;}
	.st2{fill:none;stroke:#FFFFFF;stroke-width:0;stroke-linecap:round;stroke-linejoin:round;}
</style>
<g id="Capital">
</g>
<g id="Gerrymandering">
</g>
<g id="Representative_x2F__Policy_Maker">
</g>
<g id="History">
</g>
<g id="American_Flag">
</g>
<g id="Justice">
</g>
<g id="Voting">
</g>
<g id="Info_x2F_facts">
</g>
<g id="Diversity_x2F__Inclusion">
</g>
<g id="Our_Mission">
</g>
<g id="Our_Vision">
</g>
<g id="Message">
</g>
<g id="Incoming_Message">
</g>
<g id="Candidates">
</g>
<g id="Announcement">
</g>
<g id="Candidate_Search">
</g>
<g id="Vote">
</g>
<g id="Political_Campaign">
</g>
<g id="Ballot">
</g>
<g id="Google_Doc">
</g>
<g id="PDF">
	<g>
		<g>
			<path d="M428.48,118.19H217.7c-20.57,0-37.3,16.73-37.3,37.3v409.03c0,20.57,16.73,37.3,37.3,37.3h256.86
				c20.57,0,37.3-16.73,37.3-37.3V258.84L428.48,118.19z M419.71,150.02l65.78,110.97h-65.78V150.02z M488.08,564.52
				c0,7.46-6.06,13.52-13.52,13.52H217.7c-7.46,0-13.52-6.06-13.52-13.52V155.48c0-7.46,6.06-13.52,13.52-13.52h178.24v130.92
				c0,6.57,5.32,11.89,11.89,11.89h80.25V564.52z"/>
		</g>
	</g>
	<g>
		<g>
			<path class="st1" d="M332.35,297.95c-0.76-2.08-1.93-3.33-3.79-3.77c-0.46-0.13-0.99-0.15-1.52-0.19
				c-0.5,0.03-1.26,0.02-1.44,0.08c-0.45,0.11-0.57,0.12-0.83,1.06c-0.31,1.89,0.32,4.61,1.1,7.04c0.81,2.49,1.83,4.98,2.95,7.43
				c1.06,2.26,2.22,4.48,3.42,6.68c0.19-1.17,0.41-2.34,0.58-3.51C333.42,307.63,333.83,302.16,332.35,297.95z"/>
		</g>
		<g>
			<path class="st1" d="M277.43,435.62c-0.63,1.94,0.29,3.62,2.56,4.56c4.46,1.71,10.48,0.38,14.23-3.13
				c2.28-6.24,4.53-12.52,6.8-18.78c-7.21,2.89-14.04,6.27-19.52,11.57C279.68,431.58,278.02,433.6,277.43,435.62z"/>
		</g>
		<g>
			<path class="st1" d="M337.04,329c-1.22,5.8-2.74,11.5-4.39,17.13c-3.14,10.6-6.76,21-10.7,31.26c-4,10.41-8.28,20.67-12.85,30.81
				c19.95-7.85,40.6-13.39,61.74-17.07c4.52-0.66,9.06-1.31,13.66-1.77c-3.47-3.83-6.88-7.7-10.24-11.62
				C361.04,362.11,348.53,345.94,337.04,329z"/>
		</g>
		<g>
			<path class="st1" d="M417.85,401.01c-3.86-2.2-8.97-3.22-14.05-3.64c-1.07-0.08-2.16-0.05-3.24-0.09c0.11,0.1,0.21,0.2,0.32,0.3
				c4.02,3.65,8.11,7.21,12.28,10.66c1,0.82,2.18,1.82,3.06,2.47c0.68,0.52,1.33,0.74,1.92,0.78c1.15,0.12,2.58-0.66,3.4-2.04
				C423.26,406.63,421.78,403.22,417.85,401.01z"/>
		</g>
		<g>
			<path d="M428.89,402.15c-1.44-3.66-4.25-6.1-6.99-7.83c-5.64-3.35-11.57-4.47-17.31-5.15c-4.43-0.47-8.78-0.52-13.08-0.33
				c-4.8-4.55-9.54-9.16-14.12-13.94c-14.64-15.24-28.34-31.57-39.7-49.41c0.74-3.97,1.37-7.98,1.71-12.08
				c0.31-5.66,0.56-11.52-1.93-17.62c-1.16-3-4.36-6.12-8-6.54c-0.87-0.15-1.73-0.15-2.56-0.13c-0.86,0.11-1.49,0.07-2.63,0.4
				c-1.05,0.32-2.16,1.03-2.87,2.04c-0.68,1-0.93,2.03-1.05,2.95c-0.23,3.6,0.86,6.28,1.85,8.97c1.06,2.65,2.31,5.15,3.64,7.6
				c1.77,3.28,3.69,6.44,5.66,9.57c-3.42,18.34-9.48,36.6-15.38,54.66c-3.95,11.7-8.09,23.39-12.27,35.06
				c-4.09,1.75-8.14,3.61-12.07,5.84c-2.45,1.41-4.89,2.92-7.19,4.74c-2.2,1.79-4.33,3.7-6.27,5.89c-1.89,2.21-3.78,4.63-4.51,7.99
				c-0.36,1.66-0.06,3.73,1.07,5.23c1.11,1.51,2.68,2.34,4.18,2.76c6.05,1.44,12.15-0.83,15.8-5.33
				c3.59-6.88,6.97-13.84,10.26-20.83c1.37-0.52,2.75-1.03,4.13-1.54c10.19-3.53,20.61-6.56,31.13-9.12
				c10.51-2.59,21.12-4.83,31.77-6.45c6.62-1.05,13.31-1.86,19.9-2.19c1.51,1.57,2.97,3.19,4.52,4.72
				c3.92,3.88,7.94,7.68,12.04,11.38c1.08,0.95,1.95,1.78,3.22,2.82c1.44,1.21,3.39,2.16,5.53,2.38c4.39,0.49,8.35-2,10.39-5.23
				C429.96,410.18,430.37,405.75,428.89,402.15z M328.82,309.6c-1.13-2.45-2.15-4.93-2.95-7.43c-0.78-2.43-1.41-5.15-1.1-7.04
				c0.26-0.95,0.38-0.95,0.83-1.06c0.18-0.06,0.94-0.05,1.44-0.08c0.53,0.04,1.06,0.06,1.52,0.19c1.86,0.44,3.03,1.69,3.79,3.77
				c1.48,4.21,1.06,9.68,0.47,14.82c-0.17,1.17-0.39,2.34-0.58,3.51C331.04,314.08,329.88,311.86,328.82,309.6z M294.23,437.05
				c-3.76,3.51-9.77,4.84-14.23,3.13c-2.27-0.94-3.19-2.62-2.56-4.56c0.59-2.02,2.25-4.03,4.07-5.78
				c5.48-5.3,12.31-8.67,19.52-11.57C298.76,424.53,296.5,430.81,294.23,437.05z M370.84,391.14c-21.14,3.68-41.79,9.22-61.74,17.07
				c4.57-10.14,8.84-20.4,12.85-30.81c3.94-10.27,7.56-20.67,10.7-31.26c1.66-5.64,3.17-11.34,4.39-17.13
				c11.49,16.94,24,33.11,37.22,48.75c3.36,3.92,6.77,7.79,10.24,11.62C379.9,389.83,375.36,390.47,370.84,391.14z M421.54,409.45
				c-0.82,1.39-2.26,2.17-3.4,2.04c-0.59-0.05-1.24-0.27-1.92-0.78c-0.87-0.65-2.05-1.65-3.06-2.47
				c-4.17-3.45-8.26-7.01-12.28-10.66c-0.11-0.1-0.21-0.2-0.32-0.3c1.08,0.04,2.18,0.01,3.24,0.09c5.08,0.42,10.19,1.44,14.05,3.64
				C421.78,403.22,423.26,406.63,421.54,409.45z"/>
		</g>
	</g>
	<g>
		<path d="M323.87,507.15c0,5.48-1.72,9.67-5.13,12.58c-3.44,2.9-8.3,4.35-14.62,4.35h-4.63v18.12h-10.8v-50.93h16.27
			c6.18,0,10.87,1.34,14.09,3.99C322.26,497.92,323.87,501.88,323.87,507.15z M299.48,515.23h3.55c3.32,0,5.81-0.65,7.46-1.97
			c1.65-1.3,2.47-3.22,2.47-5.72c0-2.53-0.7-4.4-2.08-5.61c-1.38-1.21-3.54-1.81-6.49-1.81h-4.91V515.23z"/>
		<path d="M375.74,516.24c0,8.38-2.38,14.81-7.16,19.26c-4.76,4.46-11.66,6.69-20.67,6.69h-14.42v-50.93h15.99
			c8.31,0,14.77,2.19,19.37,6.58C373.44,502.24,375.74,508.37,375.74,516.24z M364.52,516.52c0-10.94-4.83-16.41-14.49-16.41h-5.75
			v33.16h4.63C359.32,533.28,364.52,527.69,364.52,516.52z"/>
		<path d="M396.92,542.2H386.3v-50.93h29.19v8.85h-18.57v13.13h17.28v8.81h-17.28V542.2z"/>
	</g>
</g>
<g id="Illustrator_File">
</g>
<g id="IMG_File">
</g>
<g id="Links">
</g>
</svg>
