<?xml version="1.0" encoding="utf-8"?>
<!-- Generator: Adobe Illustrator 25.1.0, SVG Export Plug-In . SVG Version: 6.00 Build 0)  -->
<svg version="1.1" xmlns="http://www.w3.org/2000/svg" xmlns:xlink="http://www.w3.org/1999/xlink" x="0px" y="0px"
	 viewBox="0 0 720 720" style="enable-background:new 0 0 720 720;" xml:space="preserve">
<style type="text/css">
	.st0{fill:#FFFFFF;}
	.st1{fill:none;}
	.st2{fill:none;stroke:#FFFFFF;stroke-width:0;stroke-linecap:round;stroke-linejoin:round;}
	.st3{fill:none;stroke:#000000;stroke-width:5;stroke-miterlimit:10;}
	.st4{stroke:#000000;stroke-width:5;stroke-miterlimit:10;}
</style>
<g id="Capital">
</g>
<g id="Gerrymandering">
</g>
<g id="Representative_x2F__Policy_Maker">
</g>
<g id="History">
</g>
<g id="American_Flag">
</g>
<g id="Justice">
</g>
<g id="Voting">
</g>
<g id="Info_x2F_facts">
</g>
<g id="Diversity_x2F__Inclusion">
</g>
<g id="Our_Mission">
</g>
<g id="Our_Vision">
</g>
<g id="Message">
</g>
<g id="Incoming_Message">
</g>
<g id="Candidates">
</g>
<g id="Announcement">
</g>
<g id="Candidate_Search">
</g>
<g id="Vote">
</g>
<g id="Political_Campaign">
</g>
<g id="Ballot">
</g>
<g id="Google_Doc">
</g>
<g id="PDF">
</g>
<g id="Illustrator_File">
</g>
<g id="IMG_File">
</g>
<g id="Links">
</g>
<g id="video">
</g>
<g id="excel">
	<rect x="363.77" y="2.4" transform="matrix(6.123234e-17 -1 1 6.123234e-17 158.2679 585.818)" width="16.54" height="422.76"/>
	
		<rect x="364.03" y="87.09" transform="matrix(-1.836970e-16 1 -1 -1.836970e-16 670.5085 -73.5773)" width="16.03" height="422.76"/>
	
		<rect x="364.03" y="162.52" transform="matrix(-1.836970e-16 1 -1 -1.836970e-16 745.9413 1.8555)" width="16.03" height="422.76"/>
	
		<rect x="364.03" y="237.95" transform="matrix(-1.836970e-16 1 -1 -1.836970e-16 821.374 77.2882)" width="16.03" height="422.76"/>
	
		<rect x="364.03" y="310.16" transform="matrix(-1.836970e-16 1 -1 -1.836970e-16 893.5822 149.4963)" width="16.03" height="422.76"/>
	
		<rect x="160.66" y="205.51" transform="matrix(-1 -1.224647e-16 1.224647e-16 -1 337.3564 735.0591)" width="16.03" height="324.05"/>
	
		<rect x="567.39" y="205.51" transform="matrix(-1 -1.224647e-16 1.224647e-16 -1 1150.8153 735.0591)" width="16.03" height="324.05"/>
	
		<rect x="491.87" y="290.45" transform="matrix(-1 -1.224647e-16 1.224647e-16 -1 999.7574 820.0049)" width="16.03" height="239.1"/>
	
		<rect x="407.94" y="290.45" transform="matrix(-1 -1.224647e-16 1.224647e-16 -1 831.9138 820.0049)" width="16.03" height="239.1"/>
	
		<rect x="326.27" y="290.45" transform="matrix(-1 -1.224647e-16 1.224647e-16 -1 668.5569 820.0049)" width="16.03" height="239.1"/>
</g>
</svg>
