<?xml version="1.0" encoding="utf-8"?>
<!-- Generator: Adobe Illustrator 25.1.0, SVG Export Plug-In . SVG Version: 6.00 Build 0)  -->
<svg version="1.1" xmlns="http://www.w3.org/2000/svg" xmlns:xlink="http://www.w3.org/1999/xlink" x="0px" y="0px"
	 viewBox="0 0 720 720" style="enable-background:new 0 0 720 720;" xml:space="preserve">
<style type="text/css">
	.st0{fill:#FFFFFF;}
	.st1{fill:none;}
	.st2{fill:none;stroke:#FFFFFF;stroke-width:0;stroke-linecap:round;stroke-linejoin:round;}
	.st3{fill:none;stroke:#000000;stroke-width:5;stroke-miterlimit:10;}
	.st4{stroke:#000000;stroke-width:5;stroke-miterlimit:10;}
</style>
<g id="Capital">
</g>
<g id="Gerrymandering">
</g>
<g id="Representative_x2F__Policy_Maker">
</g>
<g id="History">
</g>
<g id="American_Flag">
</g>
<g id="Justice">
</g>
<g id="Voting">
</g>
<g id="Info_x2F_facts">
</g>
<g id="Diversity_x2F__Inclusion">
</g>
<g id="Our_Mission">
</g>
<g id="Our_Vision">
</g>
<g id="Message">
</g>
<g id="Incoming_Message">
</g>
<g id="Candidates">
</g>
<g id="Announcement">
</g>
<g id="Candidate_Search">
</g>
<g id="Vote">
</g>
<g id="Political_Campaign">
</g>
<g id="Ballot">
</g>
<g id="Google_Doc">
</g>
<g id="PDF">
</g>
<g id="Illustrator_File">
</g>
<g id="IMG_File">
</g>
<g id="Links">
</g>
<g id="video">
	<g>
		<path class="st1" d="M566.64,314.83c-18.04,14.49-36.18,28.87-54.4,43.14v33.07c18.13,16.29,36.27,32.57,54.4,48.86
			C566.64,398.21,566.64,356.52,566.64,314.83z"/>
		<path d="M569.93,283.56c-19.12,15.49-38.37,30.83-57.69,46.08v-34.81c0-38.02-30.93-68.95-68.96-68.95H248.99
			c-38.02,0-68.95,30.93-68.95,68.95v166.22c0,38.03,30.93,68.96,68.95,68.96h194.29c38.03,0,68.96-30.93,68.96-68.96v-39.83
			c19.23,17.27,38.46,34.55,57.69,51.82c7.09,6.37,19.19,2.16,19.19-7.95c0-50.69,0-101.38,0-152.07c0-7.17,0-14.34,0-21.51
			C589.13,281,577.18,277.69,569.93,283.56z M210.02,461.04V294.82c0-21.49,17.48-38.97,38.97-38.97h194.29
			c21.49,0,38.98,17.48,38.98,38.97v166.22c0,21.49-17.49,38.98-38.98,38.98H248.99C227.5,500.02,210.02,482.53,210.02,461.04z
			 M512.24,357.97c18.22-14.27,36.35-28.65,54.4-43.14c0,41.69,0,83.38,0,125.07c-18.13-16.29-36.27-32.57-54.4-48.86V357.97z"/>
		<path class="st0" d="M482.26,461.04V294.82c0-21.49-17.49-38.97-38.98-38.97H248.99c-21.49,0-38.97,17.48-38.97,38.97v166.22
			c0,21.49,17.48,38.98,38.97,38.98h194.29C464.77,500.02,482.26,482.53,482.26,461.04z"/>
	</g>
</g>
</svg>
