<?xml version="1.0" encoding="utf-8"?>
<!-- Generator: Adobe Illustrator 25.1.0, SVG Export Plug-In . SVG Version: 6.00 Build 0)  -->
<svg version="1.1" xmlns="http://www.w3.org/2000/svg" xmlns:xlink="http://www.w3.org/1999/xlink" x="0px" y="0px"
	 viewBox="0 0 720 720" style="enable-background:new 0 0 720 720;" xml:space="preserve">
<style type="text/css">
	.st0{fill:#FFFFFF;}
	.st1{fill:none;}
	.st2{fill:none;stroke:#FFFFFF;stroke-width:0;stroke-linecap:round;stroke-linejoin:round;}
	.st3{fill:none;stroke:#000000;stroke-width:5;stroke-miterlimit:10;}
	.st4{stroke:#000000;stroke-width:5;stroke-miterlimit:10;}
</style>
<g id="Capital">
</g>
<g id="Gerrymandering">
</g>
<g id="Representative_x2F__Policy_Maker">
</g>
<g id="History">
</g>
<g id="American_Flag">
</g>
<g id="Justice">
</g>
<g id="Voting">
</g>
<g id="Info_x2F_facts">
</g>
<g id="Diversity_x2F__Inclusion">
</g>
<g id="Our_Mission">
</g>
<g id="Our_Vision">
</g>
<g id="Message">
</g>
<g id="Incoming_Message">
</g>
<g id="Candidates">
</g>
<g id="Announcement">
</g>
<g id="Candidate_Search">
</g>
<g id="Vote">
</g>
<g id="Political_Campaign">
</g>
<g id="Ballot">
</g>
<g id="Google_Doc">
</g>
<g id="PDF">
</g>
<g id="Illustrator_File">
</g>
<g id="IMG_File">
</g>
<g id="Links">
	<g>
		<path class="st1" d="M454.02,521.01c5.14,0,7.71-4.24,7.71-12.72c0-4.14-0.63-7.24-1.9-9.31c-1.27-2.07-3.25-3.1-5.96-3.1
			c-2.83,0-4.9,0.87-6.21,2.62c-1.3,1.74-1.98,4.62-2.03,8.63v1.24c0,4.51,0.67,7.75,2.01,9.71
			C448.98,520.03,451.11,521.01,454.02,521.01z"/>
		<path class="st1" d="M263.61,529.55h24.24v-24.24h-24.24v-24.24h24.24v-24.24h-24.24v-24.24h24.24v-24.24h-24.24v-24.24h24.24
			v-24.24h-24.24v-24.24h24.24v-24.24h-24.24v-24.24h24.24v-24.24h-24.24v-24.24h24.24v-24.24h-24.24v-24.24h24.24v-24.24h-24.24
			v-23.98h-22.46c-7.46,0-13.52,6.06-13.52,13.52v409.03c0,7.46,6.06,13.52,13.52,13.52h46.7v-24.24h-24.24V529.55z"/>
		<polygon class="st1" points="443.16,150.02 443.16,260.99 508.94,260.99 		"/>
		<path class="st1" d="M419.38,272.88V141.97H287.85v23.98h24.24v24.24h-24.24v24.24h24.24v24.24h-24.24v24.24h24.24v24.24h-24.24
			v24.24h24.24v24.24h-24.24v24.24h24.24v24.24h-24.24v24.24h24.24v24.24h-24.24v24.24h24.24v24.24h-24.24v24.24h24.24v24.24h-24.24
			v24.24h24.24v24.24h185.92c7.46,0,13.52-6.06,13.52-13.52V284.78h-80.25C424.7,284.78,419.38,279.45,419.38,272.88z
			 M402.78,529.55h-40.93v-7.56l26.37-37.81h-25.66v-9.63h39.5v7.52l-26.34,37.85h27.05V529.55z M422.12,529.55h-11.48v-42.06h11.48
			V529.55z M421.08,480.77c-1.04,0.99-2.6,1.49-4.68,1.49c-4.16,0-6.25-1.88-6.25-5.64c0-3.74,2.08-5.61,6.25-5.61
			c4.16,0,6.25,1.87,6.25,5.61C422.64,478.4,422.12,479.78,421.08,480.77z M434.16,487.49h9.33l1.62,5.46h0.53
			c2.68-4.16,6.66-6.25,11.93-6.25c4.97,0,8.85,1.92,11.66,5.76c2.81,3.84,4.21,9.17,4.21,15.99c0,4.49-0.66,8.39-1.98,11.7
			c-1.32,3.31-3.19,5.83-5.62,7.56c-2.43,1.73-5.29,2.6-8.58,2.6c-4.94,0-8.82-1.79-11.63-5.38h-0.6c0.4,3.51,0.6,5.54,0.6,6.1
			v17.04h-11.47V487.49z"/>
		<path d="M451.93,118.19H241.14c-20.57,0-37.3,16.73-37.3,37.3v409.03c0,20.57,16.73,37.3,37.3,37.3h256.86
			c20.57,0,37.3-16.73,37.3-37.3V258.84L451.93,118.19z M443.16,150.02l65.78,110.97h-65.78V150.02z M511.53,564.52
			c0,7.46-6.06,13.52-13.52,13.52H312.09v-24.24h-24.24v24.24h-46.7c-7.46,0-13.52-6.06-13.52-13.52V155.48
			c0-7.46,6.06-13.52,13.52-13.52h22.46v23.98h24.24v-23.98h131.53v130.92c0,6.57,5.32,11.89,11.89,11.89h80.25V564.52z"/>
		<rect x="287.85" y="165.95" width="24.24" height="24.24"/>
		<rect x="263.61" y="190.19" width="24.24" height="24.24"/>
		<rect x="287.85" y="214.43" width="24.24" height="24.24"/>
		<rect x="263.61" y="238.67" width="24.24" height="24.24"/>
		<rect x="287.85" y="262.91" width="24.24" height="24.24"/>
		<rect x="263.61" y="287.15" width="24.24" height="24.24"/>
		<rect x="287.85" y="311.39" width="24.24" height="24.24"/>
		<rect x="263.61" y="335.63" width="24.24" height="24.24"/>
		<rect x="287.85" y="359.87" width="24.24" height="24.24"/>
		<rect x="263.61" y="384.11" width="24.24" height="24.24"/>
		<rect x="287.85" y="408.35" width="24.24" height="24.24"/>
		<rect x="287.85" y="456.83" width="24.24" height="24.24"/>
		<rect x="263.61" y="481.07" width="24.24" height="24.24"/>
		<rect x="287.85" y="505.31" width="24.24" height="24.24"/>
		<rect x="263.61" y="529.55" width="24.24" height="24.24"/>
		<rect x="263.61" y="432.59" width="24.24" height="24.24"/>
		<polygon points="402.06,482.07 402.06,474.55 362.56,474.55 362.56,484.18 388.22,484.18 361.84,521.99 361.84,529.55 
			402.78,529.55 402.78,519.92 375.73,519.92 		"/>
		<path d="M416.4,471.01c-4.16,0-6.25,1.87-6.25,5.61c0,3.76,2.08,5.64,6.25,5.64c2.08,0,3.64-0.5,4.68-1.49
			c1.04-0.99,1.56-2.38,1.56-4.16C422.64,472.88,420.56,471.01,416.4,471.01z"/>
		<rect x="410.64" y="487.49" width="11.48" height="42.06"/>
		<path d="M445.63,531.02c0-0.55-0.2-2.58-0.6-6.1h0.6c2.81,3.59,6.68,5.38,11.63,5.38c3.29,0,6.14-0.87,8.58-2.6
			c2.43-1.73,4.31-4.25,5.62-7.56c1.32-3.31,1.98-7.21,1.98-11.7c0-6.82-1.41-12.15-4.21-15.99c-2.81-3.84-6.7-5.76-11.66-5.76
			c-5.27,0-9.24,2.08-11.93,6.25h-0.53l-1.62-5.46h-9.33v60.57h11.47V531.02z M445.63,507.13c0.05-4.01,0.73-6.89,2.03-8.63
			c1.3-1.74,3.37-2.62,6.21-2.62c2.71,0,4.7,1.04,5.96,3.1c1.27,2.07,1.9,5.17,1.9,9.31c0,8.48-2.57,12.72-7.71,12.72
			c-2.91,0-5.04-0.98-6.38-2.93c-1.34-1.96-2.01-5.19-2.01-9.71V507.13z"/>
	</g>
</g>
<g id="video">
</g>
<g id="Layer_26">
</g>
</svg>
