<?xml version="1.0" encoding="utf-8"?>
<!-- Generator: Adobe Illustrator 25.1.0, SVG Export Plug-In . SVG Version: 6.00 Build 0)  -->
<svg version="1.1" xmlns="http://www.w3.org/2000/svg" xmlns:xlink="http://www.w3.org/1999/xlink" x="0px" y="0px"
	 viewBox="0 0 864 864" style="enable-background:new 0 0 864 864;" xml:space="preserve">
<style type="text/css">
	.st0{fill:#8674F5;}
	.st1{fill:none;stroke:#1D1D21;stroke-width:10;stroke-linejoin:round;stroke-miterlimit:10;}
	.st2{fill:#1D1D21;}
	.st3{fill:#0C0C0C;}
	.st4{fill:none;}
	.st5{fill:none;stroke:#1D1D21;stroke-width:39;stroke-linecap:round;stroke-miterlimit:10;}
</style>
<g id="Layer_1">
</g>
<g id="Layer_2">
</g>
<g id="Layer_3">
	<g>
		<path class="st4" d="M262.49,306.58c-0.48-0.14-0.96-0.3-1.44-0.43c-9.16-2.62-18.66-4.37-27.9-4.01
			c-4.57,0.21-9.17,1.03-12.8,3.1c-1.8,1.02-3.29,2.38-4.19,4c-0.9,1.62-1.24,3.53-0.96,5.56c0.23,2.02,1.05,4.09,2.15,6.05
			c1.12,1.96,2.53,3.81,4.1,5.55c3.17,3.48,6.95,6.49,10.94,9.21c3.97,2.69,8.2,5.08,12.56,7.2c0.98-1.58,1.95-3.17,2.9-4.77
			C253.71,327.23,258.6,316.71,262.49,306.58z"/>
		<path class="st0" d="M578.29,490.54c-4.96,1.04-9.89,1.86-15.09,2.45c-2.74,0.2-5.43,0.26-8.16,0.05l-2.05-0.17
			c-0.68-0.06-1.37-0.2-2.05-0.31c-0.68-0.13-1.37-0.2-2.05-0.37l-2.05-0.51c-2.71-0.77-5.42-1.78-7.95-3.31
			c-2.52-1.5-4.93-3.37-6.87-5.77c-1.94-2.38-3.46-5.19-4.28-8.24c-0.83-3.04-0.95-6.28-0.37-9.35c0.58-3.07,1.81-5.98,3.53-8.45
			c1.71-2.48,3.81-4.57,6.09-6.33c4.64-3.38,9.87-5.49,15.11-6.55c1.31-0.22,2.64-0.54,3.93-0.66l3.81-0.42
			c2.34-0.25,4.74-0.53,7.09-0.9c3.95-0.6,7.89-1.38,11.75-2.37l-0.61-1.23c-0.06-0.12,0.1-0.24,0.19-0.14
			c0.35,0.38,0.72,0.78,1.08,1.2c5.1-1.35,10.04-3.09,14.63-5.41c4.06-2.09,7.91-4.75,10.35-8.14c1.22-1.68,2-3.53,2.15-5.38
			c0.14-1.85-0.34-3.73-1.43-5.46c-1.05-1.74-2.66-3.29-4.47-4.61c-1.83-1.31-3.88-2.42-6.04-3.34c-4.33-1.85-9.02-3.01-13.78-3.83
			c-4.77-0.8-9.64-1.22-14.52-1.33c-4.89-0.16-9.8-0.01-14.71,0.27c9.69-1.68,19.61-2.51,29.58-1.69c4.98,0.4,9.97,1.3,14.83,2.97
			c2.42,0.85,4.81,1.91,7.08,3.3c1.13,0.71,2.23,1.49,3.26,2.41c1.04,0.9,2.01,1.94,2.84,3.11c1.72,2.3,2.76,5.36,2.69,8.42
			c-0.06,3.07-1.18,5.96-2.7,8.33c-1.51,2.42-3.44,4.4-5.48,6.15c-2.04,1.74-4.23,3.23-6.49,4.55c-4.51,2.65-9.3,4.58-14.14,6.17
			c-4.85,1.58-9.78,2.79-14.73,3.74c-2.48,0.49-4.95,0.88-7.49,1.25l-3.5,0.53c-1.15,0.14-2.21,0.47-3.31,0.69
			c-4.35,1.01-8.37,2.83-11.63,5.32c-1.57,1.29-2.94,2.74-3.99,4.33c-1.06,1.59-1.7,3.35-1.99,5.1c-0.59,3.53,0.52,7.11,2.93,9.9
			c2.44,2.77,6.04,4.78,10.09,5.81c4.03,1.04,8.55,1.24,12.89,0.84c0.53-0.01,1.12-0.12,1.7-0.2l1.75-0.26
			c1.17-0.18,2.33-0.32,3.5-0.54c2.34-0.45,4.71-0.8,7.03-1.35c4.68-0.94,9.25-2.23,13.78-3.6c4.52-1.43,8.94-3.09,13.25-4.97
			c4.29-1.93,8.44-4.12,12.42-6.56c7.97-4.86,15.05-11.01,20.7-18.22c5.61-7.21,9.68-15.62,11.16-24.55
			c1.51-8.9,0.63-18.21-2.79-26.67c-1.69-4.24-3.95-8.27-6.71-11.97c-2.77-3.7-6.02-7.06-9.57-10.1
			c-7.13-6.08-15.64-10.65-24.67-13.82c-4.51-1.61-9.15-2.95-13.89-3.92c-4.74-0.96-9.54-1.69-14.39-2.15
			c-4.85-0.45-9.73-0.71-14.62-0.67c-4.9-0.08-9.8,0.22-14.71,0.51c9.68-1.76,19.55-2.73,29.49-2.59c6.96,0.1,13.94,0.77,20.84,2.1
			c-7.51-25.46-31.65-87.68-67.77-136.91l-0.12-0.17c-27.92-41.6-65.35-61.16-113.35-55.17c-39.31,4.9-74.71,26.78-100.64,57.52
			c-10.88,12.9-19.86,27.34-26.76,43c1.82,0.74,3.59,1.56,5.32,2.51l1.79,1.01c0.6,0.34,1.16,0.76,1.74,1.13
			c0.57,0.4,1.16,0.75,1.71,1.19l1.65,1.32c2.15,1.83,4.19,3.87,5.85,6.32c1.67,2.41,3.08,5.11,3.84,8.11
			c0.78,2.97,0.99,6.16,0.47,9.27c-0.51,3.11-1.75,6.11-3.56,8.66c-1.81,2.55-4.13,4.69-6.72,6.22c-2.59,1.55-5.37,2.57-8.17,3.22
			c-5.62,1.15-11.26,0.89-16.47-0.32c-1.11-0.3-2.25-0.54-3.33-0.88c-4.09,10.72-9.24,21.84-15.43,33.25l-0.09,0.16
			c-0.78,1.31-1.58,2.61-2.37,3.9c1.46,0.6,2.93,1.2,4.4,1.77c-9.51-2.5-18.88-5.87-27.6-10.76c-4.36-2.44-8.53-5.33-12.25-8.87
			c-1.85-1.78-3.58-3.74-5.07-5.95c-0.73-1.12-1.41-2.28-1.96-3.55c-0.57-1.25-1.02-2.59-1.29-4.01c-0.6-2.81-0.28-6.02,1.06-8.78
			c1.33-2.77,3.55-4.93,5.92-6.46c2.38-1.57,4.96-2.57,7.54-3.31c2.58-0.74,5.19-1.18,7.79-1.44c5.2-0.53,10.36-0.3,15.42,0.27
			c5.07,0.58,10.05,1.53,14.95,2.73c2.46,0.59,4.87,1.25,7.33,1.97l3.4,0.98c1.11,0.35,2.2,0.49,3.3,0.75
			c4.38,0.89,8.79,0.91,12.78,0c1.97-0.52,3.82-1.27,5.43-2.28c1.63-1,2.94-2.33,3.94-3.81c2-2.97,2.48-6.68,1.45-10.22
			c-1.07-3.53-3.5-6.86-6.76-9.48c-3.24-2.62-7.26-4.69-11.37-6.12c-0.49-0.21-1.07-0.36-1.63-0.53l-1.7-0.49
			c-1.14-0.32-2.25-0.68-3.41-0.97c-2.32-0.57-4.62-1.23-6.95-1.7c-4.64-1.09-9.34-1.82-14.03-2.46c-4.7-0.58-9.41-0.91-14.12-0.99
			c-4.7-0.03-9.39,0.24-14.02,0.8c-9.26,1.1-18.27,3.75-26.4,7.96c-8.1,4.22-15.3,10.18-20.36,17.69
			c-5.08,7.46-8.14,16.3-8.56,25.42c-0.23,4.55,0.16,9.16,1.12,13.68c0.98,4.51,2.53,8.92,4.5,13.17
			c3.96,8.49,9.79,16.19,16.69,22.83c3.43,3.34,7.1,6.49,11,9.34c3.91,2.84,7.97,5.51,12.19,7.94c4.22,2.42,8.55,4.69,13.02,6.69
			c4.42,2.11,9,3.87,13.59,5.66c-6.95-1.77-13.81-3.97-20.5-6.67c-10.23,10.94-21.58,21.22-34.18,30.96l-0.33,0.26l-0.37,0.2
			c-34.65,18.49-60.39,38.49-76.07,65.42c0,0-1.76,2.87-1.77,2.87c-3.89,8.57-5.06,16.77-2.76,20.21
			c2.37,3.54,10.55,6.23,20.43,5.85c6.14-0.24,13.09-4.37,19.49-6.95c15.23-6.14,42.26-5.44,62-4.93c3.83,0.1,7.46-1.71,10.17-3.58
			l2.65-2.1c35.71-29.21,42.63-37.96,45.77-45.61c1.35-3.3,12.58-24.61,16.18-28.66c0.09-0.1,0.24,0,0.2,0.12l-10.67,33.06
			c0,0,0,0.01,0,0.01c-3.86,9.41-10.32,25.09-52,58.35c0,0-0.01,0.01-0.01,0.01c-4.18,4.96-11.48,8.18-19.12,11.54
			c-6.43,2.83-13.09,5.75-17.68,9.62c-6.37,5.38-10.84,12.13-12.92,19.53c-1.92,6.84-1.33,12.07,1.81,16
			c4.82,6.04,18.81,12.83,58,10.88c10.33-0.79,19.89-1.18,28.73-1.18c13.76,0,20.79-1.39,31.4,0.53c5.16,0.93,15.84,2.28,20.32,5.01
			c28.65,17.43,71.56,27.15,128.96,23.15c0,0,0.01,0,0.01,0l124.8-17.65c0,0,0.01,0,0.01,0l92.16-2.87c0.01,0,0.01,0,0.02,0
			c3.95-0.78,5.35-1.75,5.75-2.11c0.03-0.03,0.04-0.06,0.03-0.1c-0.13-0.51-0.71-2.06-3.44-4.88c-1.85-1.91-4.07-3.71-6.81-5.49
			c-10.76-7.02-17.58-15.79-20.29-26.07l0,0l-32.52-65.22c-2.61,1.01-5.24,1.94-7.9,2.8C588.16,488.21,583.25,489.56,578.29,490.54z
			 M341.89,267.87c3.08-14.37,9.09-23.96,13.63-21.87c4.56,2.06,6.34,14.12,3.77,27.38c-2.77,13.69-9.29,24.38-14.36,23.43
			C339.87,295.82,338.6,282.67,341.89,267.87z M387.01,330.35c-23.17,6.86-40.76,5.34-50.56-7.92c-0.29-0.4,0.96-0.49,1.71-0.12
			c10,4.85,26.47,7.05,47.67,7.31C386.82,329.63,387.67,330.16,387.01,330.35z M409.28,282.25c-4.61,16.61-13.62,28.62-20.14,26.81
			c-6.52-1.81-8.06-16.74-3.46-33.35s13.62-28.62,20.14-26.81C412.34,250.7,413.89,265.63,409.28,282.25z"/>
		<path class="st0" d="M643.91,453.16c-3.12,4.23-6.71,8.06-10.58,11.54c-3.87,3.48-8.04,6.6-12.41,9.34
			c-3.97,2.5-8.1,4.69-12.32,6.67c9.75,15.64,19.36,32.49,26.13,46.17c4.77,9.64,14.68,10.62,25.41,9.88
			c48.36-3.33,88.35-7.65,118.64-22.43c2.61-1.27,4.45-3.63,5.03-6.47c0.59-2.86-0.17-5.77-2.09-7.99
			c-6.57-7.62-17.3-14.41-33.74-21.36c-8.05-2.86-16.87-8.68-26.97-17.77l-0.38-0.38c-4.6-5.12-12.38-11.34-23.12-18.48
			c-12.46-8.28-25.9-15.45-39.95-21.32c-0.32-0.13-0.63-0.27-0.94-0.4c-0.1,1.37-0.25,2.75-0.45,4.11
			C654.69,434.82,650.15,444.74,643.91,453.16z"/>
		<path class="st2" d="M789.31,493.33c-7.63-8.85-19.57-16.51-37.56-24.1l-0.28-0.11c-6.68-2.35-14.6-7.61-23.55-15.64
			c0,0-0.01-0.01-0.01-0.01c-5.25-5.78-13.37-12.3-24.84-19.92c-12.98-8.63-26.99-16.1-41.63-22.22c-1.72-0.72-3.4-1.46-5.04-2.21
			c0.45,3.66,0.52,7.36,0.25,11.04c0.32,0.13,0.62,0.27,0.94,0.4c14.05,5.87,27.5,13.04,39.95,21.32
			c10.74,7.14,18.52,13.35,23.12,18.48l0.38,0.38c10.1,9.09,18.92,14.9,26.97,17.77c16.45,6.95,27.17,13.74,33.74,21.36
			c1.91,2.22,2.68,5.13,2.09,7.99c-0.58,2.84-2.42,5.2-5.03,6.47c-30.3,14.78-70.28,19.1-118.64,22.43
			c-10.73,0.74-20.64-0.24-25.41-9.88c-6.77-13.68-16.38-30.53-26.13-46.17c-0.42,0.2-0.85,0.41-1.27,0.6
			c-2.12,0.93-4.26,1.81-6.41,2.64l32.52,65.22l0,0c2.71,10.28,9.53,19.05,20.29,26.07c2.73,1.78,4.96,3.58,6.81,5.49
			c2.72,2.82,3.31,4.37,3.44,4.88c0.01,0.04,0,0.08-0.03,0.1c-0.4,0.35-1.8,1.32-5.75,2.11c-0.01,0-0.01,0-0.02,0l-92.16,2.87
			c0,0-0.01,0-0.01,0l-124.8,17.65c0,0-0.01,0-0.01,0c-57.4,4-100.31-5.72-128.96-23.15c-4.48-2.73-15.16-4.07-20.32-5.01
			c-10.61-1.92-17.63-0.53-31.4-0.53c-8.84,0-18.4,0.39-28.73,1.18c-39.19,1.95-53.18-4.84-58-10.88c-3.14-3.93-3.73-9.17-1.81-16
			c2.08-7.4,6.55-14.16,12.92-19.53c4.59-3.87,11.25-6.8,17.68-9.62c7.64-3.36,14.94-6.58,19.12-11.54c0,0,0.01-0.01,0.01-0.01
			c41.68-33.26,48.14-48.94,52-58.35c0,0,0-0.01,0-0.01l10.67-33.06c0.04-0.12-0.12-0.22-0.2-0.12
			c-3.6,4.05-14.83,25.36-16.18,28.66c-3.14,7.65-10.07,16.4-45.77,45.61l-2.65,2.1c-2.71,1.88-6.34,3.68-10.17,3.58
			c-19.74-0.51-46.77-1.22-62,4.93c-6.4,2.58-13.35,6.72-19.49,6.95c-9.88,0.38-18.06-2.31-20.43-5.85
			c-2.3-3.44-1.13-11.64,2.76-20.21c0,0,1.76-2.87,1.77-2.87c15.68-26.93,41.42-46.93,76.07-65.42l0.37-0.2l0.33-0.26
			c12.59-9.74,23.94-20.02,34.18-30.96c-2.49-1.01-4.96-2.08-7.39-3.24c-0.76-0.36-1.52-0.74-2.28-1.12
			c-9.16,9.53-19.22,18.56-30.29,27.15c-0.01,0-0.01,0.01-0.02,0.01c-36.22,19.39-62.97,43.7-79.53,72.26l-0.22,0.42
			c-5.66,12.35-6.24,21.61-1.76,28.3c4.53,6.77,13.5,9.8,27.41,9.27c7.3-0.28,14.79-1.95,22.26-4.96
			c12.74-5.14,37.92-4.71,55.66-4.26c0.13,0,0.16,0.17,0.05,0.23c-2.56,1.31-5.45,2.58-8.31,3.83c-7.08,3.11-14.41,6.33-20.11,11.14
			c-7.91,6.67-13.48,15.13-16.1,24.47c-2.81,10.02-1.6,18.41,3.62,24.94c9.27,11.61,30.98,16.39,66.38,14.63l0.13-0.01
			c25.55-1.95,46.04-1.44,62.62,1.54c3.91,0.7,7.66,2.11,11.05,4.18c24.94,15.23,60.08,22.9,104.74,22.9
			c9.93,0,20.33-0.38,31.19-1.14c0,0,0.01,0,0.01,0l124.78-17.64c0,0,0.01,0,0.01,0l92.41-2.88l0.38-0.07
			c2.9-0.54,11.74-2.2,13.91-9c2.14-6.69-3.86-12.9-5.83-14.94c-2.37-2.46-5.17-4.72-8.54-6.92c-6.44-4.2-11-8.91-13.78-14.27
			c-0.04-0.08,0.02-0.17,0.11-0.18c56.43-2.4,102.55-12.1,137.17-28.87c5.4-2.62,9.53-7.45,10.85-13.31
			C794.9,504.2,793.35,498.02,789.31,493.33z"/>
		<path class="st2" d="M256.59,342.9c6.19-11.41,11.34-22.53,15.43-33.25c-0.17-0.05-0.35-0.1-0.51-0.16l-3.64-1.2
			c-1.76-0.59-3.57-1.16-5.38-1.7c-3.89,10.12-8.78,20.64-14.64,31.46c-0.95,1.6-1.92,3.19-2.9,4.77c0.03,0.02,0.06,0.03,0.1,0.05
			c2.97,1.48,6.01,2.82,9.09,4.1c0.8-1.3,1.6-2.59,2.37-3.9L256.59,342.9z"/>
		<path class="st2" d="M578.07,438.1l0.61,1.23c0.22-0.06,0.44-0.12,0.66-0.17c-0.37-0.41-0.73-0.82-1.08-1.2
			C578.16,437.86,578,437.98,578.07,438.1z"/>
		<path class="st2" d="M285.77,261.06c0.72,0.27,1.43,0.54,2.13,0.83c6.9-15.66,15.88-30.1,26.76-43
			c25.93-30.74,61.33-52.62,100.64-57.52c47.99-5.99,85.43,13.57,113.35,55.17l0.12,0.17c36.12,49.23,60.26,111.45,67.77,136.91
			c2.94,0.57,5.87,1.24,8.78,2.07c0.23,0.07,0.46,0.14,0.69,0.21c-12.43-42.69-30.74-92.7-69.11-145.02
			c-29.8-44.36-70.95-63.6-122.3-57.19c-41.82,5.22-80.02,26.08-107.58,58.76c-11.72,13.9-21.34,29.48-28.68,46.39
			C280.79,259.5,283.26,260.24,285.77,261.06z"/>
		<path class="st2" d="M344.93,296.81c5.07,0.95,11.59-9.74,14.36-23.43c2.56-13.26,0.78-25.32-3.77-27.38
			c-4.54-2.1-10.55,7.5-13.63,21.87C338.6,282.67,339.87,295.82,344.93,296.81z"/>
		<path class="st2" d="M405.83,248.89c-6.52-1.81-15.53,10.2-20.14,26.81s-3.06,31.54,3.46,33.35c6.52,1.81,15.53-10.2,20.14-26.81
			C413.89,265.63,412.34,250.7,405.83,248.89z"/>
		<path class="st2" d="M385.84,329.62c-21.2-0.26-37.67-2.46-47.67-7.31c-0.75-0.37-2.01-0.27-1.71,0.12
			c9.8,13.25,27.39,14.78,50.56,7.92C387.67,330.16,386.82,329.63,385.84,329.62z"/>
		<path class="st3" d="M222.97,387.76c6.69,2.71,13.55,4.91,20.5,6.67c-4.59-1.79-9.17-3.55-13.59-5.66c-4.47-2-8.8-4.27-13.02-6.69
			c-4.22-2.43-8.28-5.1-12.19-7.94c-3.91-2.85-7.57-6-11-9.34c-6.9-6.64-12.73-14.33-16.69-22.83c-1.97-4.24-3.52-8.65-4.5-13.17
			c-0.96-4.52-1.35-9.12-1.12-13.68c0.42-9.12,3.48-17.96,8.56-25.42c5.06-7.51,12.26-13.46,20.36-17.69
			c8.13-4.21,17.14-6.86,26.4-7.96c4.63-0.57,9.32-0.83,14.02-0.8c4.71,0.08,9.42,0.41,14.12,0.99c4.69,0.64,9.39,1.37,14.03,2.46
			c2.33,0.47,4.63,1.13,6.95,1.7c1.16,0.29,2.27,0.65,3.41,0.97l1.7,0.49c0.57,0.16,1.15,0.32,1.63,0.53
			c4.11,1.44,8.13,3.51,11.37,6.12c3.25,2.62,5.69,5.94,6.76,9.48c1.03,3.54,0.55,7.25-1.45,10.22c-1,1.48-2.31,2.81-3.94,3.81
			c-1.62,1.02-3.47,1.76-5.43,2.28c-3.99,0.91-8.4,0.89-12.78,0c-1.1-0.26-2.19-0.4-3.3-0.75l-3.4-0.98
			c-2.46-0.72-4.87-1.39-7.33-1.97c-4.9-1.2-9.89-2.15-14.95-2.73c-5.06-0.57-10.22-0.8-15.42-0.27c-2.6,0.26-5.21,0.71-7.79,1.44
			c-2.58,0.75-5.15,1.74-7.54,3.31c-2.37,1.53-4.59,3.69-5.92,6.46c-1.34,2.76-1.66,5.97-1.06,8.78c0.27,1.42,0.72,2.76,1.29,4.01
			c0.55,1.27,1.24,2.43,1.96,3.55c1.48,2.21,3.21,4.17,5.07,5.95c3.73,3.54,7.89,6.43,12.25,8.87c8.73,4.89,18.09,8.26,27.6,10.76
			c-1.48-0.57-2.94-1.17-4.4-1.77c-3.08-1.27-6.12-2.62-9.09-4.1c-0.03-0.02-0.06-0.03-0.1-0.05c-4.36-2.13-8.58-4.51-12.56-7.2
			c-3.99-2.73-7.77-5.74-10.94-9.21c-1.58-1.74-2.98-3.59-4.1-5.55c-1.1-1.95-1.92-4.03-2.15-6.05c-0.27-2.02,0.07-3.93,0.96-5.56
			c0.9-1.63,2.39-2.98,4.19-4c3.63-2.07,8.23-2.89,12.8-3.1c9.24-0.36,18.73,1.39,27.9,4.01c0.48,0.13,0.96,0.29,1.44,0.43
			c1.81,0.54,3.62,1.11,5.38,1.7l3.64,1.2c0.17,0.06,0.34,0.11,0.51,0.16c1.08,0.34,2.23,0.58,3.33,0.88
			c5.21,1.21,10.84,1.47,16.47,0.32c2.8-0.65,5.58-1.68,8.17-3.22c2.59-1.53,4.91-3.67,6.72-6.22c1.81-2.55,3.05-5.55,3.56-8.66
			c0.52-3.11,0.31-6.3-0.47-9.27c-0.76-2.99-2.17-5.69-3.84-8.11c-1.66-2.45-3.71-4.49-5.85-6.32l-1.65-1.32
			c-0.55-0.44-1.14-0.79-1.71-1.19c-0.58-0.38-1.14-0.8-1.74-1.13l-1.79-1.01c-1.73-0.95-3.5-1.77-5.32-2.51
			c-0.7-0.29-1.41-0.56-2.13-0.83c-2.51-0.82-4.98-1.56-7.44-2.23c-2.42-0.66-4.84-1.26-7.3-1.82c-4.92-1.17-9.94-1.99-14.98-2.68
			c-5.06-0.6-10.15-0.94-15.27-1.01c-5.12,0-10.27,0.28-15.38,0.96c-5.12,0.67-10.2,1.78-15.17,3.33
			c-4.97,1.55-9.83,3.54-14.42,6.09c-9.17,5.06-17.43,12.2-23.17,21.17c-2.88,4.46-5.18,9.31-6.71,14.39
			c-1.53,5.08-2.28,10.38-2.34,15.64c-0.13,10.55,2.66,20.94,7.56,29.99c4.87,9.08,11.57,16.97,19.23,23.51
			c7.03,5.98,14.79,10.93,22.93,14.99c0.76,0.38,1.51,0.76,2.28,1.12C218.01,385.68,220.48,386.75,222.97,387.76z"/>
		<path class="st3" d="M596.53,353.62c-6.9-1.33-13.89-2-20.84-2.1c-9.93-0.14-19.81,0.83-29.49,2.59
			c4.92-0.28,9.81-0.58,14.71-0.51c4.89-0.04,9.78,0.22,14.62,0.67c4.85,0.46,9.65,1.19,14.39,2.15c4.74,0.97,9.38,2.31,13.89,3.92
			c9.03,3.17,17.54,7.74,24.67,13.82c3.55,3.04,6.8,6.41,9.57,10.1c2.75,3.71,5.02,7.73,6.71,11.97c3.41,8.47,4.3,17.78,2.79,26.67
			c-1.48,8.93-5.55,17.35-11.16,24.55c-5.64,7.21-12.73,13.36-20.7,18.22c-3.98,2.44-8.13,4.63-12.42,6.56
			c-4.32,1.88-8.74,3.54-13.25,4.97c-4.54,1.37-9.11,2.66-13.78,3.6c-2.32,0.54-4.68,0.9-7.03,1.35c-1.17,0.21-2.34,0.35-3.5,0.54
			l-1.75,0.26c-0.58,0.09-1.18,0.19-1.7,0.2c-4.33,0.4-8.86,0.2-12.89-0.84c-4.05-1.03-7.65-3.04-10.09-5.81
			c-2.41-2.79-3.52-6.36-2.93-9.9c0.29-1.76,0.93-3.51,1.99-5.1c1.05-1.59,2.42-3.04,3.99-4.33c3.25-2.49,7.27-4.3,11.63-5.32
			c1.11-0.22,2.16-0.54,3.31-0.69l3.5-0.53c2.54-0.37,5.01-0.76,7.49-1.25c4.96-0.94,9.88-2.16,14.73-3.74
			c4.84-1.59,9.63-3.52,14.14-6.17c2.25-1.32,4.44-2.81,6.49-4.55c2.03-1.75,3.96-3.73,5.48-6.15c1.52-2.37,2.64-5.26,2.7-8.33
			c0.07-3.06-0.97-6.12-2.69-8.42c-0.84-1.18-1.8-2.21-2.84-3.11c-1.03-0.92-2.14-1.7-3.26-2.41c-2.27-1.4-4.66-2.46-7.08-3.3
			c-4.86-1.67-9.85-2.57-14.83-2.97c-9.97-0.82-19.89,0.01-29.58,1.69c4.91-0.28,9.82-0.43,14.71-0.27
			c4.89,0.12,9.75,0.53,14.52,1.33c4.76,0.82,9.45,1.98,13.78,3.83c2.16,0.93,4.21,2.03,6.04,3.34c1.81,1.32,3.42,2.87,4.47,4.61
			c1.09,1.73,1.58,3.6,1.43,5.46c-0.15,1.85-0.93,3.7-2.15,5.38c-2.44,3.39-6.28,6.05-10.35,8.14c-4.59,2.32-9.53,4.06-14.63,5.41
			c-0.22,0.06-0.44,0.12-0.66,0.17c-3.85,0.99-7.79,1.77-11.75,2.37c-2.36,0.37-4.76,0.65-7.09,0.9l-3.81,0.42
			c-1.3,0.11-2.62,0.44-3.93,0.66c-5.24,1.06-10.47,3.17-15.11,6.55c-2.28,1.76-4.38,3.85-6.09,6.33c-1.72,2.47-2.94,5.38-3.53,8.45
			c-0.58,3.07-0.46,6.31,0.37,9.35c0.82,3.04,2.34,5.86,4.28,8.24c1.93,2.41,4.34,4.28,6.87,5.77c2.53,1.53,5.24,2.54,7.95,3.31
			l2.05,0.51c0.68,0.17,1.37,0.25,2.05,0.37c0.68,0.1,1.37,0.25,2.05,0.31l2.05,0.17c2.73,0.21,5.42,0.15,8.16-0.05
			c5.2-0.58,10.12-1.41,15.09-2.45c4.96-0.98,9.87-2.33,14.74-3.8c2.66-0.85,5.29-1.79,7.9-2.8c2.15-0.83,4.29-1.71,6.41-2.64
			c0.43-0.19,0.85-0.4,1.27-0.6c4.22-1.98,8.35-4.17,12.32-6.67c4.37-2.74,8.53-5.86,12.41-9.34c3.87-3.47,7.46-7.31,10.58-11.54
			c6.24-8.42,10.78-18.34,12.27-28.89c0.2-1.36,0.35-2.73,0.45-4.11c0.28-3.68,0.2-7.38-0.25-11.04c-0.03-0.24-0.05-0.49-0.09-0.73
			c-0.72-5.26-2.25-10.38-4.38-15.2c-4.27-9.65-11.13-17.94-19.35-24.13c-8.01-6.08-17.14-10.4-26.57-13.17
			c-0.23-0.07-0.46-0.15-0.69-0.21C602.4,354.87,599.47,354.19,596.53,353.62z"/>
	</g>
</g>
</svg>
