<?xml version="1.0" encoding="utf-8"?>
<!-- Generator: Adobe Illustrator 25.1.0, SVG Export Plug-In . SVG Version: 6.00 Build 0)  -->
<svg version="1.1" xmlns="http://www.w3.org/2000/svg" xmlns:xlink="http://www.w3.org/1999/xlink" x="0px" y="0px"
	 viewBox="0 0 864 864" style="enable-background:new 0 0 864 864;" xml:space="preserve">
<style type="text/css">
	.st0{fill:#8674F5;}
	.st1{fill:none;stroke:#1D1D21;stroke-width:10;stroke-linejoin:round;stroke-miterlimit:10;}
	.st2{fill:#1D1D21;}
	.st3{fill:#0C0C0C;}
	.st4{fill:none;}
	.st5{fill:none;stroke:#1D1D21;stroke-width:39;stroke-linecap:round;stroke-miterlimit:10;}
</style>
<g id="Layer_1">
</g>
<g id="Layer_2">
</g>
<g id="Layer_3">
	<g>
		<path class="st0" d="M198.36,369.02l-4.29-5.65c-1.37-1.91-2.68-3.86-4-5.79l-0.98-1.43l-0.94-1.27c-0.64-0.84-1.21-1.71-1.93-2.5
			c-0.7-0.79-1.35-1.64-2.08-2.39l-2.2-2.23c-3.02-2.84-6.38-5.19-9.96-6.63l-1.34-0.52c-0.45-0.18-0.91-0.25-1.36-0.39
			c-0.9-0.3-1.81-0.4-2.72-0.56c-1.8-0.17-3.61-0.25-5.29,0.14c-1.69,0.34-3.32,0.89-4.73,1.82c-1.41,0.9-2.73,1.99-3.72,3.39
			c-1.01,1.37-1.88,2.9-2.41,4.63c-0.35,0.82-0.47,1.75-0.69,2.63c-0.1,0.45-0.11,0.93-0.18,1.39c-0.04,0.47-0.15,0.92-0.13,1.4
			c-0.17,3.8,0.59,7.78,1.93,11.65c1.34,3.83,3.28,7.55,5.56,11.1c7.36,9.22,14.88,18.28,22.71,27.03
			c7.89,8.82,16.09,17.34,24.94,25.14c8.75,7.9,18.19,15.02,28.3,21.12c1.81,1.08,3.66,2.1,5.52,3.1
			c10.82-10.02,20.92-20.59,30.37-31.82c0.73-0.92,1.45-1.84,2.16-2.76c-10.39-3.58-20.48-8.12-30.04-13.76
			C224.67,396.38,210.2,383.77,198.36,369.02z"/>
		<path class="st3" d="M238.36,454.19c-1.86-1-3.71-2.02-5.52-3.1c-10.11-6.1-19.55-13.21-28.3-21.12
			c-8.84-7.8-17.05-16.32-24.94-25.14c-7.83-8.74-15.35-17.81-22.71-27.03c-2.28-3.56-4.23-7.27-5.56-11.1
			c-1.35-3.87-2.1-7.85-1.93-11.65c-0.02-0.48,0.09-0.94,0.13-1.4c0.07-0.46,0.08-0.94,0.18-1.39c0.23-0.88,0.35-1.81,0.69-2.63
			c0.53-1.73,1.4-3.26,2.41-4.63c0.99-1.4,2.31-2.49,3.72-3.39c1.41-0.93,3.04-1.48,4.73-1.82c1.69-0.39,3.49-0.31,5.29-0.14
			c0.9,0.16,1.82,0.26,2.72,0.56c0.45,0.14,0.91,0.22,1.36,0.39l1.34,0.52c3.58,1.44,6.94,3.79,9.96,6.63l2.2,2.23
			c0.73,0.75,1.38,1.6,2.08,2.39c0.72,0.79,1.29,1.66,1.93,2.5l0.94,1.27l0.98,1.43c1.33,1.94,2.63,3.88,4,5.79l4.29,5.65
			c11.84,14.76,26.32,27.36,42.5,36.83c9.55,5.64,19.65,10.18,30.04,13.76c0.58-0.74,1.15-1.49,1.72-2.23
			c-10.06-4.65-19.73-9.99-28.75-16.25c-7.45-5.16-14.42-10.93-20.92-17.14c-6.5-6.23-12.35-13.06-17.71-20.25l-3.87-5.49
			c-1.25-1.87-2.43-3.81-3.67-5.7l-0.93-1.44l-1.07-1.54c-0.73-1.02-1.41-2.08-2.21-3.02c-0.79-0.96-1.53-1.96-2.38-2.89
			c-0.86-0.92-1.71-1.85-2.59-2.75c-3.59-3.56-7.85-6.67-12.79-8.77l-1.87-0.75c-0.62-0.25-1.3-0.4-1.95-0.61
			c-1.29-0.43-2.66-0.65-4.03-0.88c-2.75-0.35-5.62-0.43-8.45,0.16c-5.67,0.97-11.07,4.26-14.55,8.88c-1.74,2.3-3.13,4.86-3.95,7.55
			c-0.51,1.33-0.73,2.69-1.03,4.04c-0.14,0.68-0.18,1.36-0.26,2.04c-0.06,0.68-0.19,1.36-0.17,2.03c-0.2,5.42,0.84,10.64,2.6,15.42
			c1.76,4.79,4.18,9.19,6.92,13.29l0.13,0.2l0.13,0.16c7.7,9.25,15.65,18.34,24.07,27.03c8.43,8.67,17.35,16.93,26.86,24.5
			c9.6,7.44,19.77,14.25,30.76,19.46l2.04,1.01l2.1,0.89l0.51,0.21C236.51,455.91,237.43,455.05,238.36,454.19z"/>
		<path class="st0" d="M615.88,467.11l-2.42,0.79l-4.83,1.58c-1.59,0.56-3.26,0.93-4.9,1.34l-4.92,1.21l-1.23,0.3l-1.25,0.22
			l-2.5,0.43l-4.98,0.83c-3.35,0.38-6.7,0.63-10.03,0.91c3.27-0.78,6.55-1.42,9.78-2.22l4.79-1.41l2.39-0.69l1.19-0.34l1.17-0.43
			c6.26-2.2,12.4-4.68,18.32-7.58c11.83-5.85,23.01-12.89,33.49-20.87c10.54-7.91,20.5-16.6,30.12-25.67
			c9.54-9.01,18.76-18.4,27.82-27.98c2.87-3.75,5.39-7.7,7.23-11.85c1.86-4.18,3.07-8.55,3.24-12.8c0.07-0.54-0.01-1.05-0.01-1.58
			c-0.03-0.52,0-1.05-0.07-1.56c-0.17-1.01-0.22-2.05-0.53-3c-0.42-1.97-1.26-3.76-2.25-5.38c-0.97-1.66-2.34-2.99-3.83-4.12
			c-1.48-1.17-3.25-1.93-5.1-2.47c-1.84-0.59-3.86-0.67-5.88-0.65c-1.02,0.09-2.05,0.12-3.08,0.37c-0.51,0.11-1.03,0.15-1.55,0.31
			l-1.54,0.45c-4.12,1.26-8.09,3.57-11.71,6.45l-2.66,2.27c-0.88,0.77-1.68,1.65-2.54,2.47c-0.87,0.81-1.6,1.73-2.39,2.6l-1.17,1.32
			c-0.4,0.47-0.82,1.01-1.23,1.51c-1.66,2.03-3.29,4.08-5,6.08l-5.31,5.89c-7.26,7.68-15.23,14.69-23.75,20.91
			c-8.5,6.23-17.61,11.58-27.03,16.14c-18.89,9.11-39.21,14.61-59.66,17.25c9.95-2.75,19.74-5.87,29.24-9.65
			c9.52-3.7,18.73-8.1,27.51-13.13c0.39-0.22,0.77-0.46,1.16-0.68c-4.54-29.95-13.73-69.86-30.1-103.64l-0.08-0.17
			c-17.55-41.6-50.1-61.16-99.59-55.17c-40.54,4.9-81.39,26.78-114.98,57.52c-16.18,14.81-30.37,31.65-42.16,50.04
			c-3.52,5.5-6.99,11.66-10.92,19.41c-8.63,17.02-20.71,35.37-35.9,54.56l-0.13,0.16c-24.32,28.91-52.63,53.65-86.57,75.66
			l-0.4,0.26l-0.42,0.2c-39.26,18.49-69.99,38.49-92.38,65.42c0,0-2.48,2.87-2.48,2.87c-6.03,8.57-9.24,16.77-7.8,20.21
			c1.49,3.54,9,6.23,18.97,5.85c6.2-0.24,14.18-4.37,21.22-6.95c16.76-6.14,43.62-5.44,63.23-4.93c3.8,0.1,7.89-1.71,11.06-3.58
			l3.17-2.1c42.99-29.21,52.1-37.96,57.14-45.61c2.17-3.3,18.72-24.61,23.32-28.66c0.11-0.1,0.24,0,0.17,0.12l-18.91,33.06
			c0,0,0,0.01-0.01,0.01c-6.21,9.41-16.57,25.09-66.55,58.35c-0.01,0-0.01,0.01-0.02,0.01c-5.42,4.96-13.52,8.18-22,11.54
			c-7.14,2.83-14.52,5.75-20.08,9.62c-7.71,5.38-13.87,12.13-17.79,19.53c-3.63,6.84-4.34,12.07-2.18,16
			c3.31,6.04,15.61,12.83,55.28,10.88c10.53-0.79,20.18-1.18,29.03-1.18c13.76,0,21.14-1.39,31.27,0.53
			c4.93,0.93,15.27,2.28,19.07,5.01c24.31,17.43,64.79,27.15,123.19,23.15c0,0,0.01,0,0.01,0l129.2-17.65c0,0,0.01,0,0.01,0
			l92.88-2.87c0.01,0,0.01,0,0.02,0c4.15-0.78,5.79-1.75,6.28-2.11c0.04-0.03,0.06-0.06,0.06-0.1c0-0.51-0.2-2.06-2.22-4.88
			c-1.37-1.91-3.15-3.71-5.44-5.49c-9.01-7.02-13.64-15.79-13.79-26.07l0,0l-27.69-111.07c-0.03-0.12,0.16-0.24,0.23-0.14
			c10.22,14.97,27.05,59.35,34.31,88.91c2.37,9.64,12.04,10.62,22.95,9.88c49.19-3.33,90.25-7.65,124.24-22.43
			c2.93-1.27,5.35-3.63,6.64-6.47c1.3-2.86,1.26-5.77-0.1-7.99c-4.67-7.62-13.7-14.41-28.42-21.36
			c-7.33-2.86-14.71-8.68-22.54-17.77l-0.28-0.38c-3.33-5.12-9.56-11.34-18.51-18.48c-10.39-8.28-22.05-15.45-34.64-21.32
			c-22.29-10.39-29.68-20.97-39.04-37.79c-0.15-0.28-0.31-0.61-0.47-0.98c-0.05,0.02-0.09,0.04-0.14,0.05L615.88,467.11z
			 M370.57,346.54c10.46-8.2,20.01-7.95,28.23,4.72c1,1.54-0.72,3.4-2.34,2.54c-8.34-4.39-16.48-5.95-24.38-4.11
			C370.23,350.12,369.08,347.71,370.57,346.54z M457.99,398.37c-38.39,28.79-70.44,29.77-93.53-8.61
			c-7.56-16.87-2.83-21.32,16.12-11.37c16.73,10.01,35.88,12.49,56.98,8.83C463.6,384.08,471.97,387.24,457.99,398.37z
			 M468.59,363.49c-9.61-5.18-18.97-6.97-28.06-4.65c-1.87,0.48-3.11-1.89-1.61-3.11c11.9-9.67,22.75-9.52,32.04,5.23
			C471.94,362.52,470.21,364.36,468.59,363.49z"/>
		<path class="st2" d="M771.48,577.66c-5.43-8.85-15.45-16.51-31.56-24.1l-0.26-0.11c-6.09-2.35-12.7-7.61-19.65-15.64
			c0,0,0-0.01-0.01-0.01c-3.81-5.78-10.31-12.3-19.87-19.92c-10.83-8.63-22.98-16.1-36.09-22.22c-18.6-8.67-31.17-19.74-37.48-32.92
			c-2.69,1.2-5.42,2.34-8.18,3.38c0.16,0.37,0.32,0.71,0.47,0.98c9.36,16.82,16.74,27.39,39.04,37.79
			c12.59,5.87,24.24,13.04,34.64,21.32c8.96,7.14,15.19,13.35,18.51,18.48l0.28,0.38c7.83,9.09,15.21,14.9,22.54,17.77
			c14.71,6.95,23.75,13.74,28.42,21.36c1.36,2.22,1.4,5.13,0.1,7.99c-1.29,2.84-3.71,5.2-6.64,6.47
			c-33.98,14.78-75.04,19.1-124.24,22.43c-10.91,0.74-20.58-0.24-22.95-9.88c-7.26-29.57-24.09-73.94-34.31-88.91
			c-0.07-0.1-0.26,0.02-0.23,0.14l27.69,111.07l0,0c0.15,10.28,4.78,19.05,13.79,26.07c2.29,1.78,4.07,3.58,5.44,5.49
			c2.02,2.82,2.22,4.37,2.22,4.88c0,0.04-0.02,0.08-0.06,0.1c-0.49,0.35-2.13,1.32-6.28,2.11c-0.01,0-0.01,0-0.02,0l-92.88,2.87
			c0,0-0.01,0-0.01,0l-129.2,17.65c0,0-0.01,0-0.01,0c-58.4,4-98.89-5.72-123.19-23.15c-3.8-2.73-14.14-4.07-19.07-5.01
			c-10.13-1.92-17.5-0.53-31.27-0.53c-8.84,0-18.5,0.39-29.03,1.18c-39.67,1.95-51.97-4.84-55.28-10.88
			c-2.16-3.93-1.44-9.17,2.18-16c3.93-7.4,10.08-14.16,17.79-19.53c5.56-3.87,12.94-6.8,20.08-9.62c8.48-3.36,16.58-6.58,22-11.54
			c0.01,0,0.01-0.01,0.02-0.01c49.97-33.26,60.34-48.94,66.55-58.35c0,0,0-0.01,0.01-0.01l18.91-33.06
			c0.07-0.12-0.06-0.22-0.17-0.12c-4.61,4.05-21.15,25.36-23.32,28.66c-5.05,7.65-14.16,16.4-57.14,45.61l-3.17,2.1
			c-3.17,1.88-7.26,3.68-11.06,3.58c-19.61-0.51-46.46-1.22-63.23,4.93c-7.04,2.58-15.02,6.72-21.22,6.95
			c-9.97,0.38-17.48-2.31-18.97-5.85c-1.44-3.44,1.77-11.64,7.8-20.21c0,0,2.48-2.87,2.48-2.87c22.39-26.93,53.12-46.93,92.38-65.42
			l0.42-0.2l0.4-0.26c33.93-22.01,62.25-46.75,86.57-75.66l0.13-0.16c15.19-19.19,27.27-37.54,35.9-54.56
			c3.93-7.75,7.4-13.91,10.92-19.41c11.79-18.39,25.98-35.23,42.16-50.04c33.59-30.74,74.45-52.62,114.98-57.52
			c49.49-5.99,82.04,13.57,99.59,55.17l0.08,0.17c16.37,33.79,25.56,73.7,30.1,103.64c3.12-1.83,6.19-3.75,9.19-5.75
			c-3.98-32.36-12.17-67.49-29.71-103.73c-18.74-44.36-55.09-63.6-108.04-57.19c-43.12,5.22-86.53,26.08-122.23,58.76
			c-17.1,15.65-32.08,33.43-44.53,52.84c-3.77,5.88-7.45,12.41-11.58,20.56c-7.48,14.73-17.73,30.6-30.49,47.22
			c-0.57,0.74-1.14,1.48-1.72,2.23c-0.72,0.92-1.43,1.84-2.16,2.76c-9.45,11.23-19.55,21.8-30.37,31.82
			c-0.92,0.86-1.84,1.72-2.78,2.56c-15.08,13.67-31.57,26.3-49.75,38.12c-0.01,0-0.01,0.01-0.02,0.01
			c-41.05,19.39-73.87,43.7-97.55,72.26l-0.33,0.42c-8.74,12.35-11.63,21.61-8.82,28.3c2.84,6.77,11.05,9.8,25.1,9.27
			c7.37-0.28,15.27-1.95,23.49-4.96c14.02-5.14,39.1-4.71,56.73-4.26c0.12,0,0.12,0.17,0,0.23c-2.88,1.31-6.1,2.58-9.27,3.83
			c-7.86,3.11-15.99,6.33-22.88,11.14c-9.57,6.67-17.25,15.13-22.21,24.47c-5.31,10.02-6.19,18.41-2.6,24.94
			c6.37,11.61,26.89,16.39,62.73,14.63l0.13-0.01c26.04-1.95,46.4-1.44,62.23,1.54c3.73,0.7,7.14,2.11,10.01,4.18
			c21.15,15.23,54.37,22.9,99.03,22.9c9.93,0,20.42-0.38,31.47-1.14c0,0,0.01,0,0.01,0L522.26,685c0,0,0.01,0,0.01,0l93.13-2.88
			l0.4-0.07c3.04-0.54,12.28-2.2,16.15-9c3.8-6.69-0.64-12.9-2.1-14.94c-1.76-2.46-3.99-4.72-6.81-6.92
			c-5.4-4.2-8.78-8.91-10.22-14.27c-0.02-0.08,0.06-0.17,0.15-0.18c57.03-2.4,105.57-12.1,144.36-28.87
			c6.06-2.62,11.39-7.45,14.17-13.31C774.37,588.53,774.36,582.34,771.48,577.66z"/>
		<path class="st3" d="M610,404.68c-0.39,0.23-0.77,0.46-1.16,0.68c-8.79,5.03-17.99,9.43-27.51,13.13
			c-9.5,3.78-19.29,6.9-29.24,9.65c20.45-2.63,40.77-8.13,59.66-17.25c9.43-4.56,18.53-9.91,27.03-16.14
			c8.51-6.21,16.48-13.22,23.75-20.91l5.31-5.89c1.71-2,3.34-4.04,5-6.08c0.41-0.5,0.83-1.04,1.23-1.51l1.17-1.32
			c0.79-0.87,1.51-1.79,2.39-2.6c0.85-0.82,1.65-1.7,2.54-2.47l2.66-2.27c3.63-2.88,7.59-5.19,11.71-6.45l1.54-0.45
			c0.51-0.16,1.03-0.2,1.55-0.31c1.03-0.25,2.06-0.28,3.08-0.37c2.02-0.02,4.04,0.06,5.88,0.65c1.85,0.53,3.62,1.3,5.1,2.47
			c1.49,1.14,2.86,2.47,3.83,4.12c1,1.62,1.83,3.41,2.25,5.38c0.31,0.95,0.35,1.99,0.53,3c0.07,0.51,0.04,1.04,0.07,1.56
			c0,0.52,0.08,1.04,0.01,1.58c-0.17,4.25-1.38,8.61-3.24,12.8c-1.85,4.14-4.36,8.1-7.23,11.85c-9.06,9.58-18.28,18.97-27.82,27.98
			c-9.63,9.07-19.58,17.76-30.12,25.67c-10.48,7.99-21.66,15.03-33.49,20.87c-5.93,2.9-12.06,5.37-18.32,7.58l-1.17,0.43l-1.19,0.34
			l-2.39,0.69l-4.79,1.41c-3.23,0.8-6.5,1.44-9.78,2.22c3.33-0.27,6.69-0.52,10.03-0.91l4.98-0.83l2.5-0.43l1.25-0.22l1.23-0.3
			l4.92-1.21c1.64-0.41,3.3-0.77,4.9-1.34l4.83-1.58l2.42-0.79l2.36-0.93c0.05-0.02,0.09-0.04,0.14-0.05
			c2.76-1.04,5.49-2.18,8.18-3.38c9.66-4.32,18.89-9.6,27.76-15.35c11.34-7.48,22.02-15.89,32.21-24.77
			c10.19-8.89,19.9-18.27,29.34-27.86l0.16-0.16l0.17-0.21c3.43-4.31,6.54-8.98,8.95-14.15c2.4-5.16,4.05-10.88,4.33-16.93
			c0.08-0.75,0.01-1.52,0-2.28c-0.03-0.77-0.02-1.53-0.1-2.29c-0.22-1.54-0.33-3.08-0.77-4.6c-0.66-3.06-1.97-6.05-3.7-8.77
			c-3.45-5.48-9.16-9.64-15.38-11.25c-3.1-0.92-6.3-1.09-9.4-0.96c-1.54,0.14-3.09,0.25-4.57,0.61c-0.74,0.16-1.51,0.27-2.23,0.49
			l-2.15,0.66c-5.7,1.88-10.73,4.95-15.06,8.58c-1.07,0.92-2.09,1.88-3.14,2.82c-1.03,0.95-1.94,2-2.92,2.99
			c-0.99,0.98-1.84,2.1-2.75,3.16l-1.34,1.61l-1.17,1.51c-1.55,1.99-3.05,4.04-4.62,6l-4.83,5.76
			c-10.56,12.04-22.75,22.65-36.17,31.6C616.19,400.93,613.12,402.85,610,404.68z"/>
		<path class="st2" d="M372.08,349.69c7.91-1.83,16.05-0.27,24.38,4.11c1.62,0.85,3.34-1.01,2.34-2.54
			c-8.23-12.67-17.78-12.92-28.23-4.72C369.08,347.71,370.23,350.12,372.08,349.69z"/>
		<path class="st2" d="M438.91,355.73c-1.5,1.22-0.25,3.59,1.61,3.11c9.08-2.32,18.45-0.53,28.06,4.65
			c1.63,0.88,3.36-0.97,2.37-2.54C461.67,346.21,450.82,346.06,438.91,355.73z"/>
		<path class="st2" d="M437.56,387.22c-21.11,3.66-40.25,1.17-56.98-8.83c-18.95-9.94-23.68-5.5-16.12,11.37
			c23.09,38.39,55.14,37.41,93.53,8.61C471.97,387.24,463.6,384.08,437.56,387.22z"/>
	</g>
</g>
</svg>
