<?xml version="1.0" encoding="utf-8"?>
<!-- Generator: Adobe Illustrator 25.1.0, SVG Export Plug-In . SVG Version: 6.00 Build 0)  -->
<svg version="1.1" xmlns="http://www.w3.org/2000/svg" xmlns:xlink="http://www.w3.org/1999/xlink" x="0px" y="0px"
	 viewBox="0 0 864 864" style="enable-background:new 0 0 864 864;" xml:space="preserve">
<style type="text/css">
	.st0{fill:#8674F5;}
	.st1{fill:none;stroke:#1D1D21;stroke-width:10;stroke-linejoin:round;stroke-miterlimit:10;}
	.st2{fill:#1D1D21;}
	.st3{fill:#0C0C0C;}
	.st4{fill:none;}
	.st5{fill:none;stroke:#1D1D21;stroke-width:39;stroke-linecap:round;stroke-miterlimit:10;}
</style>
<g id="Layer_1">
</g>
<g id="Layer_2">
	<g>
		<path class="st0" d="M750.52,512.98c-8.05-2.86-16.87-8.68-26.97-17.77l-0.38-0.38c-4.61-5.13-12.39-11.34-23.12-18.48
			c-12.45-8.28-25.9-15.45-39.95-21.32c-24.89-10.39-42.77-24.21-53.17-41.06c-2.57-4.17-4.64-8.99-6.15-14.32
			c-12.23-43.25-30.05-94.71-69.5-148.48l-0.12-0.17c-27.92-41.6-64.82-58.92-112.82-52.93c-39.31,4.9-75.24,24.54-101.17,55.28
			c-12.49,14.81-22.48,31.65-29.68,50.04c-2.15,5.5-4.09,11.66-6.08,19.41c-4.39,17.02-11.89,35.37-22.3,54.56l-0.09,0.16
			c-17.11,28.91-39.26,53.65-67.7,75.66l-0.33,0.26l-0.37,0.2c-34.66,18.49-60.17,41.52-75.85,68.45
			c-3.9,8.57-4.74,14.92-2.44,18.36c2.37,3.54,8.83,5.21,18.71,4.83c6.14-0.24,12.5-1.66,18.9-4.24c15.23-6.14,42.26-5.44,62-4.92
			c3.83,0.1,7.44,0.19,10.38,0.21l0.1,0c35.71-29.21,41.43-43.12,44.57-50.77c1.4-3.42,2.62-6.38,5.42-9.08l6.94,7.2
			c-1.24,1.19-1.88,2.68-3.11,5.68c-3.86,9.41-10.31,25.09-52.01,58.36c-4.18,4.97-11.48,8.19-19.13,11.55
			c-6.43,2.83-13.09,5.75-17.68,9.62c-6.37,5.37-10.84,12.13-12.92,19.53c-1.92,6.84-1.33,12.07,1.81,16
			c4.82,6.04,18.8,12.83,58,10.88c10.33-0.79,19.89-1.18,28.73-1.18c13.77,0,25.82,0.96,36.43,2.87c5.13,0.93,9.99,2.78,14.44,5.49
			c28.65,17.48,72.33,24.32,129.81,20.32l124.81-17.65l36.11-1.12l56.07-1.74c4.14-0.82,5.48-1.84,5.81-2.15
			c-0.09-0.44-0.61-2-3.45-4.94c-1.85-1.91-4.07-3.71-6.81-5.49c-10.76-7.01-17.58-15.79-20.29-26.07l0,0
			c-7.12-22.89-22.82-54.93-39.04-71.87l7.22-6.92c16.43,17.16,32.24,48.49,40.18,72.17c56.82-2.11,102.9-11.6,136.98-28.23
			c2.61-1.27,4.45-3.63,5.03-6.47c0.59-2.86-0.17-5.77-2.09-7.99C777.69,526.72,766.96,519.93,750.52,512.98z M331.24,314.89
			c0-16.59,6.79-30.04,15.17-30.04s15.17,13.45,15.17,30.04s-6.79,30.04-15.17,30.04S331.24,331.47,331.24,314.89z M345.23,366.79
			c10.87,13.48,29.95,12.3,54.77,0.88C376.29,402.37,357.34,406.48,345.23,366.79z M402.06,344.92c-8.7,0-15.76-13.98-15.76-31.21
			s7.06-31.21,15.76-31.21c8.7,0,15.76,13.98,15.76,31.21S410.76,344.92,402.06,344.92z"/>
		<path class="st2" d="M791.83,527.81c-7.63-8.85-19.57-16.51-37.56-24.1l-0.28-0.11c-6.68-2.35-14.6-7.61-23.56-15.65
			c-5.25-5.78-13.38-12.3-24.84-19.92c-12.98-8.63-26.99-16.1-41.63-22.22c-22.92-9.57-39.24-22.05-48.51-37.08
			c-2.09-3.38-3.78-7.35-5.04-11.79c-12.47-44.09-30.65-96.57-71-151.59c-29.8-44.36-70.95-63.6-122.3-57.2
			c-41.82,5.22-80.02,26.08-107.58,58.76c-13.2,15.65-23.74,33.43-31.35,52.84c-2.3,5.88-4.36,12.41-6.46,20.56
			c-4.18,16.2-11.37,33.77-21.36,52.21c-16.38,27.65-37.59,51.38-64.84,72.51c-36.22,19.39-62.98,43.71-79.54,72.26l-0.22,0.42
			c-5.66,12.35-6.24,21.61-1.76,28.3c4.53,6.77,13.5,9.8,27.41,9.27c7.3-0.28,14.79-1.95,22.26-4.96
			c12.85-5.18,38.37-4.71,56.14-4.25c-2.66,1.38-5.72,2.72-8.73,4.05c-7.08,3.11-14.41,6.33-20.11,11.14
			c-7.91,6.67-13.48,15.13-16.1,24.47c-2.81,10.02-1.6,18.41,3.62,24.95c9.27,11.61,30.97,16.4,66.38,14.63l0.13-0.01
			c25.59-1.95,46.1-1.44,62.69,1.56c3.92,0.71,7.62,2.12,11.01,4.19c24.94,15.22,60.07,22.88,104.71,22.88
			c9.93,0,20.33-0.38,31.19-1.14l0.18-0.01l124.61-17.63l92.03-2.86l0.39-0.01l0.38-0.07c2.9-0.54,11.74-2.2,13.91-9
			c2.14-6.7-3.86-12.9-5.83-14.94c-2.38-2.46-5.17-4.72-8.54-6.92c-6.51-4.25-11.09-9.01-13.87-14.43
			c56.79-2.4,103.14-12.18,137.85-29.11c5.42-2.65,9.23-7.55,10.44-13.45C797.36,538.42,795.79,532.4,791.83,527.81z M786.35,542.33
			c-0.58,2.84-2.42,5.2-5.03,6.47c-34.09,16.63-80.17,26.12-136.98,28.23c-7.94-23.68-23.75-55.01-40.18-72.17l-7.22,6.92
			c16.22,16.94,31.92,48.98,39.04,71.87l0,0c2.71,10.28,9.53,19.05,20.29,26.07c2.73,1.78,4.96,3.58,6.81,5.49
			c2.84,2.94,3.36,4.51,3.45,4.94c-0.33,0.31-1.67,1.33-5.81,2.15l-56.07,1.74l-36.11,1.12l-124.81,17.65
			c-57.48,4-101.16-2.83-129.81-20.32c-4.45-2.72-9.31-4.56-14.44-5.49c-10.61-1.92-22.66-2.87-36.43-2.87
			c-8.84,0-18.4,0.39-28.73,1.18c-39.2,1.95-53.18-4.84-58-10.88c-3.14-3.93-3.73-9.17-1.81-16c2.08-7.4,6.55-14.16,12.92-19.53
			c4.59-3.88,11.25-6.8,17.68-9.62c7.64-3.36,14.94-6.58,19.13-11.55c41.7-33.27,48.15-48.95,52.01-58.36
			c1.23-3,1.87-4.49,3.11-5.68l-6.94-7.2c-2.8,2.7-4.02,5.66-5.42,9.08c-3.14,7.65-8.86,21.56-44.57,50.77l-0.1,0
			c-2.94-0.02-6.56-0.11-10.38-0.21c-19.74-0.51-46.77-1.22-62,4.92c-6.4,2.58-12.76,4.01-18.9,4.24
			c-9.88,0.38-16.34-1.29-18.71-4.83c-2.3-3.44-1.46-9.79,2.44-18.36c15.68-26.93,41.2-49.96,75.85-68.45l0.37-0.2l0.33-0.26
			c28.45-22.01,50.59-46.75,67.7-75.66l0.09-0.16c10.4-19.19,17.91-37.54,22.3-54.56c2-7.75,3.93-13.91,6.08-19.41
			c7.21-18.39,17.19-35.23,29.68-50.04c25.93-30.75,61.86-50.38,101.17-55.28c48-5.99,84.9,11.33,112.82,52.93l0.12,0.17
			c39.45,53.77,57.27,105.23,69.5,148.48c1.51,5.33,3.58,10.15,6.15,14.32c10.39,16.85,28.28,30.66,53.17,41.06
			c14.06,5.87,27.5,13.04,39.95,21.32c10.74,7.14,18.52,13.35,23.12,18.48l0.38,0.38c10.1,9.09,18.92,14.9,26.97,17.77
			c16.45,6.95,27.17,13.74,33.74,21.36C786.17,536.56,786.94,539.47,786.35,542.33z"/>
		<path class="st2" d="M361.57,314.89c0-16.59-6.79-30.04-15.17-30.04s-15.17,13.45-15.17,30.04s6.79,30.04,15.17,30.04
			S361.57,331.47,361.57,314.89z"/>
		<ellipse class="st2" cx="402.06" cy="313.71" rx="15.76" ry="31.21"/>
		<path class="st2" d="M345.23,366.79c12.12,39.7,31.06,35.59,54.77,0.88C375.18,379.09,356.1,380.26,345.23,366.79z"/>
	</g>
</g>
<g id="Layer_3">
</g>
</svg>
